<?xml version="1.0" encoding="UTF-8"?>
<!DOCTYPE svg>
<svg viewBox="336.879669 74.166656 319.120331 317.5" xmlns="http://www.w3.org/2000/svg">

	<rect x="336.879669" y="74.166656" width="319.120331" height="317.5" fill="#faebd7"></rect>

	<path d="M 556,174.166656 L 555.307312,174.888245 554.614929,175.609558 553.922913,176.330338 553.230469,177.051712 552.536865,177.774048 551.844421,178.495361 551.152161,179.216461 550.460815,179.93663 549.76709,180.659317 549.074829,181.380432 548.383301,182.100723 547.690186,182.822678 546.998413,183.543396 546.308411,184.267349 545.636536,185.00618 544.962646,185.74707 544.288391,186.488464 543.616699,187.22699 542.944458,187.966187 542.271606,188.705994 541.598022,189.446625 540.927246,190.184189 540.25238,190.926193 539.579468,191.666031 538.907959,192.40448 538.23645,193.142761 537.564331,193.881821 536.89325,194.619675 536.222229,195.357513 535.548462,196.098328 534.875122,196.838684 534.201172,197.579758 533.528076,198.319794 532.85553,199.059326 532.182312,199.79953 531.528137,200.557068 530.881836,201.320099 530.237061,202.0811 529.592224,202.842484 528.94574,203.605698 528.301331,204.366562 527.653748,205.130951 527.008301,205.893066 526.36084,206.657211 525.711548,207.423904 525.067932,208.183777 524.424316,208.943451 523.780823,209.70314 523.133118,210.467773 522.487,211.230652 521.837463,211.997406 521.193481,212.757584 520.55011,213.517349 519.90509,214.278732 519.260376,215.039825 518.610596,215.806946 517.960999,216.573837 517.316833,217.334335 516.669678,218.098328 516.021667,218.863266 515.378662,219.622482 514.733215,220.384384 514.085693,221.148834 513.437012,221.914673 512.789001,222.679626 512.142151,223.443314 511.493591,224.208862 510.844971,224.974655 510.198822,225.737518 509.55069,226.502655 508.903534,227.266663 508.256531,228.030533 507.554474,228.742828 506.817444,229.420212 506.080292,230.097778 505.344635,230.773849 504.60672,231.452148 503.870544,232.128677 503.136169,232.803741 502.398682,233.481598 501.661926,234.158844 500.924164,234.836884 500.189362,235.512268 499.451599,236.190353 498.716217,236.866257 497.979431,237.543381 497.242706,238.220535 496.507812,238.895981 495.772583,239.571777 495.035461,240.249268 494.294891,240.921951 493.530304,241.566605 492.764771,242.212326 491.999237,242.857773 491.234039,243.50293 490.470642,244.146713 489.70459,244.792694 488.942017,245.435776 488.175323,246.082306 487.41272,246.725388 486.646606,247.371338 485.883118,248.015228 485.117981,248.660431 484.352112,249.306244 483.589294,249.949524 482.824707,250.594284 482.062378,251.237061 481.296204,251.883179 480.530151,252.529114 479.764526,253.174789 478.999176,253.820175 478.234497,254.464951 477.45462,255.090836 476.607452,255.620407 475.758606,256.150848 474.911102,256.680603 474.063171,257.210541 473.214417,257.740997 472.366577,258.270874 471.518799,258.800781 470.671448,259.330322 469.823792,259.860107 468.986084,260.406921 468.15332,260.959015 467.318878,261.512054 466.485748,262.064423 465.651703,262.617157 464.819489,263.168884 463.985748,263.721558 463.151886,264.274323 462.318817,264.826538 461.485046,265.379211 460.641113,265.916077 459.753998,266.378052 458.867035,266.840088 457.979736,267.302216 457.093384,267.763855 456.206726,268.225647 455.32019,268.687347 454.433533,269.1492 453.546234,269.611328 452.648651,270.052521 451.703918,270.380554 450.75882,270.70874 449.814362,271.036682 448.869263,271.364838 447.922577,271.686768 446.954712,271.938904 445.986572,272.19101 445.019104,272.442963 444.029083,272.299255 443.061646,272.047302 442.094025,271.795288 441.233856,271.285248 440.457397,270.654877 439.570374,270.192902 438.867859,269.481049 438.328949,268.638977 437.790009,267.796875 437.445862,266.857697 437.212555,265.885345 436.979065,264.912628 436.879669,263.917664 437.18454,262.964905 437.489471,262.012085 437.794098,261.06015 438.098877,260.107727 438.409271,259.157043 439.102051,258.435364 439.79425,257.714294 440.486877,256.992859 441.179688,256.271149 441.926636,255.606613 442.747528,255.036377 443.56897,254.465973 444.389771,253.895996 445.210999,253.325684 446.032684,252.755066 446.974548,252.418381 447.964142,252.277786 448.953552,252.137299 449.945679,251.996323 450.934723,251.855865 451.926514,251.714981 452.916138,251.574448 453.906128,251.433823 454.895874,251.293243 455.88385,251.152847 456.87439,251.012161 457.862946,250.87175 458.854919,250.730835 459.845764,250.590088 460.837219,250.449265 461.828674,250.308441 462.819244,250.167725 463.809204,250.0271 464.802582,250.133743 465.789856,250.298309 466.774628,250.462448 467.76297,250.627167 468.747345,250.791183 469.732605,250.95546 470.720978,251.120193 471.705322,251.284225 472.690887,251.448502 473.6763,251.612717 474.664612,251.777435 475.649994,251.94165 476.635101,252.105835 477.623779,252.270645 478.61145,252.435226 479.599792,252.599976 480.584595,252.764099 481.570618,252.928436 482.556854,253.092804 483.543274,253.257202 484.502594,253.542755 485.424866,253.927017 486.348785,254.311981 487.271667,254.696518 488.193298,255.080536 489.116425,255.465179 490.037506,255.848984 490.958496,256.232727 491.882812,256.617859 492.806213,257.002594 493.729187,257.387146 494.651093,257.771271 495.572845,258.155365 496.495667,258.539856 497.420471,258.925171 498.344238,259.310089 499.266693,259.694458 500.168182,260.126556 500.967621,260.728027 501.767151,261.329437 502.566895,261.931122 503.365234,262.531738 504.164093,263.13269 504.961761,263.732788 505.762726,264.335388 506.561646,264.936401 507.361389,265.538055 508.161469,266.139954 508.959106,266.73999 509.758545,267.341492 510.559082,267.943695 511.356689,268.543793 512.155518,269.144775 512.954712,269.746002 513.7547,270.347839 514.542969,270.963623 515.281494,271.636719 516.020813,272.310577 516.759094,272.983521 517.497803,273.65686 518.236084,274.329742 518.974548,275.002869 519.713928,275.676758 520.453186,276.350555 521.208252,277.006897 521.976562,277.647156 522.744751,278.287292 523.512329,278.92691 524.279785,279.566467 525.048828,280.207397 525.817688,280.848053 526.585876,281.488251 527.354004,282.128357 528.122375,282.768646 528.890442,283.408691 529.658386,284.048645 530.42688,284.689056 531.19519,285.329346 531.962952,285.969086 532.731018,286.609161 533.643921,287.018341 534.566956,287.402863 535.489685,287.787354 536.413025,288.172089 537.216553,288.767181 537.798767,289.580566 538.231445,290.482208 538.400024,291.468018 538.400024,291.666656" stroke="#e8b222" stroke-width="5" fill="none"></path>

</svg>