<?xml version="1.0" encoding="UTF-8"?>
<!DOCTYPE svg>
<svg viewBox="356.799957 75 202.400055 335" xmlns="http://www.w3.org/2000/svg">

	<rect x="356.799957" y="75" width="202.400055" height="335" fill="#faebd7"></rect>

	<path d="M 456.800018,175 L 456.800049,175.999329 456.800018,176.998642 456.799957,177.998947 456.800079,178.999985 456.799988,180.000412 456.799988,181.001099 456.799988,182.001266 456.800018,183.00058 456.800018,184.000519 456.800018,184.999344 456.800079,185.999695 456.800018,186.998367 456.799988,187.998489 456.799957,189.001282 456.800049,190.00061 456.800018,190.998108 456.800079,191.997055 456.800018,192.993988 456.800049,193.996704 456.800079,194.994019 456.799988,195.997253 456.800018,197.001648 456.800079,197.99826 456.800049,198.996307 456.800018,199.996552 456.800018,200.999771 456.799988,201.997604 456.800049,202.999573 456.799988,204.001205 456.800018,205.002075 456.799988,206.005066 456.799988,207.003479 456.799988,208.001495 456.800049,209.000153 456.800018,209.999817 456.799988,211.000687 456.800049,212.000107 456.799988,213.000687 456.800049,213.999512 456.800018,214.999512 456.800018,216.000015 456.800018,217.001312 456.799988,218.002121 456.800018,219.002838 456.799988,220.00441 456.799957,221.003265 456.800018,222.006226 456.800018,223.005219 456.800018,224.002197 456.800049,224.998734 456.800049,226.001358 456.800049,227.000137 456.799988,228.00296 456.799988,229.003616 456.800018,230.006165 456.800018,231.003464 456.800049,232.00415 456.799988,233.004303 456.799988,234.006042 456.800049,235.008148 456.800049,236.009766 456.800049,237.00824 456.800018,238.009186 456.799988,239.009476 456.799988,240.00914 456.800079,241.009079 456.799988,242.009308 456.800018,243.009689 456.799988,244.008392 456.799988,245.007645 456.800018,246.009125 456.799988,247.00946 456.800018,248.009109 456.800049,249.010376 456.800018,250.010651 456.799988,251.009995 456.800018,252.009598 456.800018,253.010757 456.799988,254.009888 456.800079,255.010834 456.800049,256.00885 456.800049,257.006592 456.800049,258.005798 456.800049,259.004608 456.800018,260.006561 456.800018,261.009338 456.799988,262.006439 456.800018,263.009247 456.800018,264.008484 456.800018,265.011108 456.799988,266.010315 456.800049,267.011627 456.800049,268.012329 456.799988,269.011841 456.800018,270.012939 456.800018,271.013184 456.799988,272.013184 456.800018,273.014282 456.800018,274.015381 456.799988,275.017059 456.800049,276.017365 456.800018,277.01532 456.799957,278.014954 456.80011,279.016174 456.800018,280.017548 456.800018,281.01825 456.800018,282.017151 456.799988,283.017395 456.800018,284.017761 456.799988,285.017761 456.799988,286.017303 456.800018,287.017242 456.800018,288.017426 456.800049,289.017273 456.800049,290.017303 456.799988,291.017578 456.800018,292.017975 456.80011,293.018768 456.800049,294.01889 456.800049,295.018616 456.800049,296.01828 456.799988,297.018311 456.799988,298.017975 456.799957,299.018066 456.799988,300.018127 456.800049,301.018097 456.800049,302.017761 456.870667,303.015106 457.00647,304.005585 457.142273,304.995819 457.278229,305.987152 457.414062,306.977417 457.549927,307.968201 458.069519,308.822388 458.762024,309.543793 459.200012,310" stroke="#e8b222" stroke-width="5" fill="none"></path>

</svg>