<?xml version="1.0" encoding="UTF-8"?>
<!DOCTYPE svg>
<svg viewBox="310.399963 54.166656 370.400024 356.666656" xmlns="http://www.w3.org/2000/svg">

<defs>

	<style>
		@font-face {
			font-family: "custom-font-family";
			src: url("/home/admin/Documents/GitHub/ProjetMMaki/Assets/Fonts/arial_narrow_7.ttf");
		}
	</style>

</defs>

	<rect x="310.399963" y="54.166656" width="370.400024" height="356.666656" fill="#faebd7"></rect>
	
	<path d="M 481.600006,211.666656 L 477.687897,210.833328 473.687836,210.833344 469.687897,210.833328 465.687805,210.833313 461.687866,210.833328 457.687714,210.833298 453.6875,210.833344 449.687103,210.833344 445.686432,210.833313 441.686523,210.833313 437.686646,210.833313 433.686646,210.833328 429.847351,211.954498 426.198456,213.594131 422.438782,214.959656 419.009247,217.018311 415.786926,219.388626 413.493683,222.666168 411.784485,226.282379 410.732178,230.141205 410.399994,234.127472 410.399994,238.127472 410.399963,242.127563 410.585541,246.123276 412.965027,249.338577 415.290039,252.593811 417.614899,255.848816 419.95343,259.093872 423.281067,261.313324 426.887543,263.04361 430.582092,264.575836 434.142548,266.398499 437.643341,268.333313 441.633057,268.622528 445.595856,269.166656 449.595825,269.166656 453.595795,269.166656 457.37439,270.477203 461.324097,271.110229 465.307373,271.487396 469.302673,271.666656 473.302277,271.666656 477.301605,271.666656 481.136047,272.806641 485.101013,273.333313 489.100403,273.333313 493.082428,273.709167 497.001007,274.514252 500.779602,275.826233 504.779846,275.833313 508.780212,275.833344 512.779846,275.833313 516.779724,275.833313 520.779602,275.833282 524.627197,274.738647 528.259399,273.063202 531.02948,270.177643 533.7995,267.292236 536.56958,264.406677 537.976074,260.662415 538.400024,256.684937 538.400085,252.685333 538.400024,248.684967 538.400024,244.684677 538.400024,240.684723 538.400024,236.684723 537.600037,232.765625 536.704285,228.86734 536,224.929993 534.34259,221.289246 532.51178,217.732819 529.347778,215.285278 525.765503,213.505692 522.019348,212.103455 518.043213,211.666641 514.130981,210.833359 510.167664,210.29567 506.330536,209.166641 502.330475,209.166626 498.416931,208.339218 494.417786,208.333313 490.417816,208.333328 486.500183,207.526093 482.500336,207.5 478.500305,207.5 474.500183,207.5 473.600006,207.5 " stroke="#e8b222" stroke-width="5" fill="none"></path>
	<path d="M 526.400024,213.333328 L 530.400024,213.333313 534.400208,213.333344 538.400085,213.333328 542.312195,214.166656 546.311951,214.166656 550.08252,215.502548 553.362061,217.79277 557.024658,219.400726 559.794922,222.286346 562.508179,225.225281 564.896606,228.433945 566.907898,231.891251 568,235.739151 568.946899,239.625504 569.600037,243.571945 570.397339,247.491669 570.400024,251.491669 570.399963,255.491425 570.400024,259.491364 570.362183,263.49118 569.028503,267.261993 566.703674,270.517059 563.546143,272.972778 560.075134,274.960876 556.154419,275.752869 552.233521,276.545013 548.349243,277.5 544.373901,277.943848 540.393127,278.333313 536.393066,278.333313 532.393066,278.333313 528.393066,278.333313 524.393066,278.333313 520.393127,278.333313 516.395813,278.192963 512.698608,276.666656 509.600006,275.833313 " stroke="#e8b222" stroke-width="5" fill="none"></path>
	<path d="M 482.399994,305 L 478.399933,304.999939 475.247894,302.537415 472.084961,300.08844 470.114441,296.607697 468.595581,292.90741 466.731262,289.368561 465.355347,285.612854 464.132294,281.804504 463.200043,277.915375 463.080261,273.917267 462.014832,270.061951 461.180725,266.149323 460.800049,262.16745 460.800018,258.167572 460.800018,254.167404 460.800049,250.167007 460.800049,246.166794 460.800049,242.166565 460.800018,238.166382 460.800018,234.166351 460.800049,230.166351 460.800018,226.166077 460.800018,222.166046 460.800018,218.16597 460.800049,214.165985 460.800018,210.165741 460.799988,206.165436 460.800018,202.165329 460.799988,198.165375 460.800018,194.16539 462.049286,190.36528 465.089569,187.765839 468.591675,185.833344 472.503784,185 476.385284,184.032852 480.147522,182.675323 484.01825,181.666641 488.018677,181.666641 492.012817,181.454971 495.964203,180.833344 499.876556,180 503.876068,180 507.87558,180 511.530304,181.625183 515.1474,183.333313 519.073242,184.100647 522.749451,185.67688 525.671875,188.408203 528.376343,191.356003 530.635376,194.657013 532.03418,198.404404 533.600769,202.085175 534.400024,206.004456 535.200073,209.923355 535.200073,213.923798 535.200012,217.924011 535.200012,221.924042 535.200073,225.92395 535.200012,229.92395 535.200012,233.924088 535.200012,237.924469 535.200073,241.924637 535.376831,245.921082 536.000061,249.872086 536.103149,253.870804 536.800049,257.809784 536.799988,261.809601 536.799988,265.809601 536.799988,269.809479 536.799988,273.809296 536.800049,277.809326 536.799988,281.80957 536.799927,285.809265 536.799988,289.808929 536.799927,293.809113 536.439697,297.792725 534.924011,301.494598 532.171753,304.396088 528.962402,306.783997 525.506592,308.798615 521.640991,309.824829 517.72522,310.640564 513.729858,310.833313 509.729553,310.833313 505.729584,310.833313 501.729309,310.833313 497.729553,310.833313 493.729614,310.833313 489.729614,310.833313 485.796997,310.1026 482.209656,308.333313 478.540588,306.739868 476,305 " stroke="#e8b222" stroke-width="5" fill="none"></path>
	<path d="M 460.800018,186.666656 L 460.799988,182.666687 460.958923,178.670044 461.599976,174.721802 462.424591,170.807693 463.384277,166.924271 465.444183,163.495743 468.429382,160.833328 472.04422,159.120605 475.417145,156.970215 479.252197,155.833313 482.888519,154.166656 486.888641,154.166656 490.888733,154.166656 494.888763,154.166656 498.889008,154.166672 502.889038,154.166656 506.889038,154.166656 510.889008,154.166672 514.483887,155.9207 516.808777,159.175797 518.85437,162.61319 521.600098,165.521973 522.969604,169.279907 524.606201,172.929657 525.600037,176.804047 526.399963,180.723511 527.233521,184.635681 528,188.562286 528,192.562164 528,195.833328 " stroke="#e8b222" stroke-width="5" fill="none"></path>
	<path d="M 563.200012,220 L 565.970154,222.885559 569.42157,224.907043 571.300598,228.438126 573.239563,231.936768 575.043396,235.50705 577.162537,238.899673 578.484009,242.675018 580,246.376556 580.799866,250.295593 580.799988,254.295837 580,258.214783 579.199951,262.133759 576.55011,265.130066 572.612061,265.833313 569.941284,268.811188 566.12207,269.999969 562.209656,270.833344 560,270.833313 " stroke="#e8b222" stroke-width="5" fill="none"></path>
	
	<text x="430.399963" y="271.666687" font-size="64" font-family="custom-font-family" fill="#000000" transform="rotate(-93.819574)">dede</text>

</svg>
