<?xml version="1.0" encoding="UTF-8"?>
<!DOCTYPE svg>
<svg viewBox="209.100006 74.899994 353.200012 400.933319" xmlns="http://www.w3.org/2000/svg">

<defs>

	<style>
		@font-face {
			font-family: "custom-font-family";
			src: url("/home/admin/Documents/GitHub/ProjetMMaki/Assets/Fonts/arial_narrow_7.ttf");
		}
	</style>

</defs>

	<rect x="209.100006" y="74.899994" width="353.200012" height="400.933319" fill="#faebd7"></rect>

	<path d="M 427.200012,275 L 427.011536,275.981659 426.822937,276.964081 426.634277,277.94635 426.445801,278.928131 426.168884,279.888885 425.864044,280.841675 425.559021,281.7948 425.254333,282.746887 424.949524,283.699432 424.567413,284.624329 424.113861,285.516663 423.660736,286.408264 423.20694,287.300995 422.753082,288.194 422.300476,289.084686 421.847565,289.975769 421.395538,290.865173 420.942871,291.755951 420.489624,292.647736 420.035614,293.541077 419.582214,294.433136 419.129608,295.323761 418.675964,296.216248 418.223236,297.107056 417.77002,297.99881 417.359283,298.910065 416.974579,299.831696 416.590088,300.753052 416.205139,301.67514 415.819611,302.598969 415.433563,303.523926 415.04895,304.44519 414.664856,305.36557 414.280273,306.286865 413.89447,307.21109 413.509766,308.132812 413.124634,309.055542 412.738892,309.979858 412.352661,310.905273 411.966736,311.829742 411.582153,312.751068 411.196777,313.674286 410.811981,314.596313 410.426758,315.519226 410.041809,316.441528 409.656464,317.364746 409.349518,318.315399 409.056213,319.269897 408.762024,320.227875 408.468719,321.182587 408.174927,322.13913 407.881195,323.095276 407.588165,324.048859 407.294464,325.005157 407.001465,325.958649 406.708496,326.912476 406.415009,327.867798 406.121429,328.823517 405.828064,329.778442 405.53363,330.736877 405.239929,331.692841 404.945862,332.650146 404.652283,333.605896 404.35791,334.564209 404.064484,335.519318 403.770508,336.476257 403.476654,337.4328 403.19043,338.390656 403.025604,339.378113 402.86084,340.364502 402.695892,341.352325 402.531494,342.337219 402.367004,343.322876 402.201996,344.311096 402.037689,345.294922 401.873016,346.281311 401.707977,347.269928 401.543762,348.25351 401.378693,349.24231 401.214355,350.226562 401.049805,351.212189 400.88501,352.199158 400.71991,353.187866 400.555206,354.174561 400.39032,355.162231 400.225769,356.147675 400.060974,357.134674 399.881195,358.118866 399.692688,359.100281 399.504059,360.083099 399.315552,361.064941 399.127197,362.045837 398.938416,363.0289 398.749756,364.011749 398.561096,364.994202 398.380188,365.977783 398.244293,366.96875 398.108429,367.959045 397.972656,368.949402 397.836914,369.939362 397.700989,370.930542 397.600037,371.925446 397.600006,372.925476 397.599976,373.925354 397.600006,374.925415 397.600006,375.833313" stroke="#e8b222" stroke-width="5" fill="none"></path>

	<text x="385.700012" y="244.799988" font-size="64" font-family="custom-font-family" fill="#000000" text-anchor="middle" dominant-baseline="middle" transform="rotate(0 385.700012 244.799988)">cdscs</text>

</svg>