<?xml version="1.0" encoding="UTF-8"?>
<!DOCTYPE svg>
<svg viewBox="300.800018 145.833313 352.000031 339.166687" xmlns="http://www.w3.org/2000/svg">

<defs>

	<style>
		@font-face {
			font-family: "custom-font-family";
			src: url("/home/admin/Documents/GitHub/ProjetMMaki/Assets/Fonts/arial_narrow_7.ttf");
		}
	</style>

</defs>

	<rect x="300.800018" y="145.833313" width="352.000031" height="339.166687" fill="#faebd7"></rect>
	
	<path d="M 512,346.666656 L 508.020355,346.260559 504.04303,345.833313 500.043121,345.833344 496.044006,345.833282 492.043365,345.833313 488.042938,345.833313 484.044128,345.833313 480.044373,345.833313 476.044434,345.833313 472.044373,345.833313 468.125244,346.634033 464.124939,346.666687 460.125153,346.666656 456.125549,346.666626 452.125366,346.666656 448.12561,346.666656 444.126648,346.666626 440.127502,346.666656 436.127747,346.666656 432.128143,346.666656 428.136688,346.404663 424.16391,345.944885 420.231384,345.214844 416.315308,344.398987 412.322357,344.166656 408.734619,342.397797 406.525421,339.063049 404.162109,335.836029 401.725739,332.663696 400.899994,328.749756 400.800018,324.751007 400.800049,320.750977 400.800049,316.751038 403.351746,313.670959 406.496643,311.199646 410.044098,309.35202 413.936035,308.429932 417.54129,306.697205 421.146301,304.963928 425.124908,304.5495 429.092041,304.036285 432.745178,302.405426 436.616913,301.39502 440.586121,300.908539 444.555817,300.422058 448.533447,300.000031 452.534119,300 456.533936,300 460.532532,299.907562 464.473328,299.223389 468.472076,299.166626 472.471619,299.166687 476.471161,299.166626 480.470215,299.166626 484.469818,299.166687 488.469696,299.166626 492.469971,299.166626 496.469604,299.166626 500.469971,299.166656 504.469513,299.166656 508.469116,299.166656 512.469238,299.166656 516.470215,299.166656 520.470032,299.166626 524.469971,299.166687 528.471008,299.166626 532.47229,299.166656 536.472961,299.166687 540.473145,299.166626 544.473389,299.166687 548.473267,299.166656 552.390015,299.979248 552.799927,303.958374 552.800049,307.958832 552.800049,311.958557 552.799988,315.958496 552.799988,319.958771 552.799988,323.958405 552.654114,327.955933 551.434937,331.765808 549.675781,335.35791 547.793457,338.887268 545.72229,342.309021 544.244873,346.026062 540.296387,346.666626 536.296265,346.666718 532.296387,346.666626 528.296692,346.666656 524.297363,346.666626 520.29718,346.666656 516.297485,346.666626 512.296692,346.666626 508.296906,346.666656 504.297241,346.666656 500.297638,346.666687 496.297577,346.666687 496,346.666656 " stroke="#e8b222" stroke-width="5" fill="none"></path>
	<path d="M 477.600006,378.333313 L 474.95816,375.329529 473.261536,371.706635 471.69165,368.027283 470.183136,364.322449 469.112274,360.467865 468.179138,356.579681 467.245667,352.690369 466.122498,348.85199 464.989471,345.01651 463.8815,341.173004 462.84256,337.309357 461.524323,333.533203 460.20575,329.756104 459.294678,325.860657 458.460236,321.949036 458.233887,317.955811 457.690491,313.993103 456.971191,310.057953 456.800049,306.061707 455.575745,302.253754 455.200012,298.271851 454.399933,294.352478 454.24707,290.355164 453.600098,286.408142 453.599976,282.408203 453.359619,278.415497 452.800049,274.454956 452.799988,270.454742 452.799988,266.454651 452.800018,262.454529 452.800018,258.45459 454.14917,254.689194 457.243256,252.153687 460.613922,249.999985 464.165955,248.160477 467.876495,246.666641 471.788696,245.833328 475.78894,245.833313 479.789276,245.833344 483.790009,245.833359 487.784973,246.036438 491.734894,246.666656 495.007812,248.966461 497.760986,251.867905 500.25943,254.990952 502.281555,258.441559 503.823547,262.132385 505.554443,265.738403 506.60672,269.597382 507.267059,273.542755 508.486084,277.352325 509.600067,281.194489 509.954254,285.178467 510.622559,289.122559 511.166077,293.08548 511.199951,297.085327 511.378662,301.081421 513.641113,304.380463 514.395264,308.308655 514.400024,312.308594 515.317932,316.201904 516,320.143219 517.600037,323.809357 517.872131,327.800323 518.399963,331.765442 518.400085,335.765472 519.200073,339.684998 519.524841,343.671661 520,347.643799 520.974792,351.523071 521.600037,355.473633 521.884888,359.463379 522.399963,363.429962 523.200012,367.349182 523.200012,371.349091 523.200012,375.349182 523.028381,379.34549 519.992126,381.94989 516.176025,383.149811 512.307373,384.166626 508.395325,384.999969 504.395874,385 500.396118,385 496.401459,384.792419 492.46283,384.096436 488.536346,383.333282 484.868286,381.737793 482.732971,378.355865 480.744843,374.885101 479.097656,371.240082 477.832123,367.445953 476.300293,363.75116 475.200012,359.90567 474.25238,356.019409 473.412048,352.108582 472.800018,350 " stroke="#e8b222" stroke-width="5" fill="none"></path>
	
	<text x="476.400024" y="315" font-size="64" font-family="custom-font-family" fill="#000000" text-anchor="middle" dominant-baseline="middle" transform="rotate(-105.012533 476.400024 315)">szsz</text>

</svg>
