<?xml version="1.0" encoding="UTF-8"?>
<!DOCTYPE svg>
<svg viewBox="236.788483 2.5 554.411621 535.833374" xmlns="http://www.w3.org/2000/svg">

	<rect x="236.788483" y="2.5" width="554.411621" height="535.833374" fill="#faebd7"></rect>
	
	<path d="M 455.200043,137.5 L 442.370453,147.062515 429.599091,156.696136 416.469818,165.839294 402.881287,174.28479 418.082703,179.280853 434.043823,180.423187 449.86969,182.778229 446.251312,198.366852 434.431763,209.150146 420.389099,216.825317 406.971039,225.538284 393.545715,234.256012 380.119629,242.974304 366.703979,251.685806 358.400024,265.362152 365.403809,279.748444 366.975281,295.669525 363.007294,311.169495 359.529846,326.787537 369.974518,338.908142 362.805756,353.213318 349.720764,362.421448 336.788483,371.841797 343.200043,378.333344 " stroke="#e8b222" stroke-width="5" fill="none"></path>
	<path d="M 572.000061,125.000015 L 579.564941,139.099411 589.600098,151.561234 582.453552,165.873657 568.950806,174.453964 554.62738,181.589584 540.308472,188.723145 525.33844,194.371017 536.933838,205.396973 552.274597,209.94194 543.983032,223.625885 529.481201,230.382812 514.71405,236.535858 499.635132,241.874481 484.438354,246.873367 482.820862,262.791168 497.807404,268.39505 513.284241,272.44519 529.046753,275.181763 544.748657,278.26236 535.890808,291.587616 521.651367,298.882874 506.914795,305.118896 492.145264,311.272827 476.764801,315.676453 461.613739,320.819031 474.563538,330.210876 487.529358,339.590088 482.052643,354.622803 469.208893,364.160492 455.591766,372.560181 441.191071,379.53479 448.800049,382.500031 " stroke="#e8b222" stroke-width="5" fill="none"></path>
	<path d="M 667.200073,102.5 L 679.31958,112.94342 691.200073,123.660339 684.249756,138.073166 672.358887,148.779663 658.81427,157.290268 644.922546,165.225723 654.690369,177.899521 670.070129,182.319 685.440979,186.757935 678.779358,201.304504 665.052795,209.520554 650.668579,216.526855 661.741882,228.074677 677.150513,232.38295 678.143555,248.351898 664.786072,257.157562 651.084229,265.420776 637.298401,273.542725 624.028687,282.482086 632.675781,295.94458 641.600037,309.224487 633.435547,322.986359 620.625427,332.566498 607.810181,342.150574 594.456055,350.965057 580.88916,359.444336 568.099548,369.058563 579.019836,380.752869 593.122375,388.308441 607.855957,394.546173 602.640503,409.672913 588.927734,417.930969 575.217468,426.187439 561.51123,434.441528 560.800049,438.333344 " stroke="#e8b222" stroke-width="5" fill="none"></path>

</svg>
