<?xml version="1.0" encoding="UTF-8"?>
<!DOCTYPE svg>
<svg viewBox="208.799988 135 263.200012 347.5" xmlns="http://www.w3.org/2000/svg">

	<rect x="208.799988" y="135" width="263.200012" height="347.5" fill="#faebd7"></rect>
	
	<path d="M 308.800018,235 L 308.800018,235.999634 308.799988,236.999878 308.800018,238 309.077515,238.959579 309.483093,239.875031 309.88913,240.791382 310.293152,241.703293 310.697815,242.616547 311.102448,243.529877 311.507355,244.443695 311.913544,245.360352 312.317505,246.272049 312.723358,247.188156 313.128174,248.101776 313.534668,249.019104 313.940063,249.934158 314.34613,250.850632 314.750122,251.762405 315.155884,252.678253 315.559937,253.590149 315.965729,254.505981 316.369934,255.418304 316.7742,256.330688 317.180237,257.247131 317.585236,258.161133 317.989929,259.074524 318.39502,259.98877 318.807648,260.900238 319.220673,261.812317 319.632996,262.72287 320.046051,263.634979 320.45752,264.543732 320.87146,265.457794 321.282532,266.365631 321.696991,267.280853 322.11026,268.193542 322.520935,269.100464 322.933258,270.011047 323.347656,270.926086 323.759644,271.835907 324.17276,272.748169 324.585724,273.660095 324.999969,274.575012 325.414673,275.490723 325.828796,276.405243 326.241394,277.316406 326.651672,278.222443 327.061829,279.128113 327.473938,280.0383 327.887543,280.951599 328.29895,281.860138 328.71344,282.775482 329.124512,283.683319 329.537445,284.595184 329.951508,285.509644 330.36319,286.418732 330.774658,287.327393 331.188019,288.240204 331.599579,289.149109 332.014099,290.064514 332.425079,290.972015 332.836823,291.881378 333.250793,292.795471 333.662811,293.705353 334.076294,294.6185 334.489197,295.530273 334.901398,296.440582 335.312256,297.3479 335.724487,298.25824 336.136841,299.168884 336.549805,300.080841 336.961609,300.990295 337.374451,301.901917 337.786102,302.811005 338.199097,303.723083 338.576538,304.649445 338.920471,305.589722 339.263641,306.528351 339.608246,307.470428 339.951599,308.409363 340.296265,309.351776 340.638367,310.287201 340.983398,311.230469 341.326935,312.170044 341.670532,313.109528 342.014984,314.05127 342.358002,314.989258 342.703156,315.933136 343.045502,316.869263 343.387268,317.803802 343.729156,318.738617 344.073853,319.681183 344.418671,320.623901 344.760651,321.559021 345.104584,322.499481 345.449677,323.442993 345.792969,324.381866 346.13559,325.318665 346.478302,326.255798 346.820068,327.190216 347.163177,328.128479 347.506317,329.066681 347.851166,330.009674 348.194153,330.947449 348.536194,331.882751 348.879059,332.820312 349.221741,333.757385 349.564575,334.694763 349.907593,335.63266 350.250488,336.570312 350.594238,337.510284 350.937378,338.448486 351.284302,339.38623 351.643158,340.32074 352.00177,341.254639 352.360474,342.188599 352.71875,343.121735 353.077454,344.055847 353.435577,344.988495 353.793549,345.920624 354.151733,346.853516 354.510529,347.787781 354.869141,348.721741 355.227478,349.654846 355.586182,350.588989 355.944611,351.5224 356.385437,352.419495 356.840942,353.309174 357.296631,354.199219 357.751801,355.088135 358.207062,355.977234 358.662689,356.867279 359.119415,357.759216 359.574677,358.648499 360.029633,359.536987 360.484558,360.425568 360.940552,361.316101 361.396851,362.207336 361.852142,363.096619 362.307678,363.986389 362.763733,364.877167 363.219391,365.766998 363.674347,366.65567 364.130707,367.546875 364.587341,368.438782 365.043304,369.329346 365.498718,370.218872 365.955139,371.11026 366.411407,372.001434 366.866333,372.889954 367.322052,373.78006 367.778503,374.671509 368.234314,375.561768 368.690247,376.452271 369.178986,377.324554 369.678192,378.191223 370.176971,379.05719 370.675842,379.923309 371.174988,380.789886 371.858704,381.519531 372,382.5 " stroke="#e8b222" stroke-width="5" fill="none"></path>

</svg>
