<?xml version="1.0" encoding="UTF-8"?>
<!DOCTYPE svg>
<svg viewBox="90.477844 70 649.522156 624.166626" xmlns="http://www.w3.org/2000/svg">

	<rect x="90.477844" y="70" width="649.522156" height="624.166626" fill="#faebd7"></rect>

	<path d="M 603.200012,170 L 602.575439,170.780685 601.950623,171.561798 601.325867,172.342606 600.70166,173.122894 600.076843,173.903961 599.451904,174.68515 598.847656,175.481735 598.258179,176.287506 597.668823,177.093521 597.07843,177.900558 596.486938,178.709137 595.897949,179.514664 595.309265,180.319489 594.718689,181.126785 594.128235,181.934052 593.53833,182.740753 592.94812,183.547501 592.356873,184.355835 591.767212,185.162109 591.17627,185.969971 590.585876,186.77713 589.997009,187.582199 589.405945,188.390396 588.814331,189.199127 588.223083,190.007568 587.633728,190.813278 587.043518,191.620178 586.453308,192.427094 585.812256,193.194839 585.165649,193.959076 584.517578,194.725235 583.872253,195.488098 583.230225,196.247025 582.584656,197.010269 581.940735,197.771347 581.299438,198.529388 580.657776,199.287979 580.009399,200.054413 579.365173,200.81604 578.716125,201.583282 578.065063,202.352783 577.422241,203.1129 576.782959,203.868607 576.141968,204.626251 575.501038,205.383911 574.861572,206.139801 574.208801,206.911346 573.568054,207.668839 572.924133,208.430054 572.286377,209.183945 571.638672,209.9496 570.990112,210.716248 570.350281,211.472549 569.711182,212.228012 569.064453,212.992584 568.419556,213.755127 567.776733,214.514816 567.127563,215.282303 566.48175,216.045853 565.829956,216.816238 565.191895,217.570404 564.539246,218.341965 563.891479,219.107742 563.239075,219.878799 562.602356,220.631577 561.951904,221.400589 561.307617,222.16217 560.670044,222.915817 560.029419,223.673126 559.385864,224.433807 558.739746,225.197617 558.101379,225.952271 557.450562,226.721649 556.807983,227.481277 556.153198,228.255234 555.507202,229.018906 554.859741,229.784256 554.211121,230.551041 553.561401,231.319016 552.91095,232.087952 552.259888,232.857666 551.608337,233.627899 550.956482,234.398346 550.304626,235.168915 549.652954,235.939301 549.001587,236.709259 548.350769,237.478622 547.700684,238.247086 547.051514,239.014435 546.403503,239.780502 545.756714,240.545013 545.111572,241.307739 544.457764,242.080627 543.816162,242.839066 543.166443,243.607086 542.529297,244.360291 541.884521,245.122528 541.242432,245.881516 540.603333,246.636963 539.967407,247.388672 539.315063,248.159882 538.676392,248.914856 538.031738,249.67688 537.391479,250.433807 536.736267,251.208313 536.095703,251.965546 535.450684,252.727997 534.811157,253.483932 534.158813,254.255203 533.521973,255.008026 532.882324,255.764069 532.231628,256.533325 531.579468,257.30426 530.935364,258.065613 530.291077,258.827301 529.638489,259.598755 528.987183,260.368561 528.346375,261.126129 527.70813,261.880615 527.065247,262.640564 526.419067,263.404419 525.778687,264.161407 525.130127,264.928131 524.489929,265.684845 523.845215,266.447021 523.205078,267.203735 522.558228,267.968414 521.914429,268.729462 521.264404,269.497864 520.613037,270.267853 519.971191,271.026611 519.328003,271.786865 518.677612,272.555786 518.028564,273.323059 517.385498,274.083221 516.741699,274.844208 516.095398,275.608154 515.450134,276.370972 514.769958,277.107574 514.074158,277.820862 513.36969,278.543121 512.67395,279.256439 511.97995,279.967896 511.279236,280.686157 510.582642,281.400421 509.885193,282.115417 509.186584,282.831726 508.483124,283.552826 507.792664,284.26059 507.084259,284.986847 506.386017,285.702698 505.675598,286.431091 504.982483,287.141632 504.282288,287.859528 503.576447,288.58316 502.881561,289.295532 502.18454,290.009949 501.471222,290.741486 500.757538,291.472992 500.061584,292.186462 499.368622,292.896942 498.662567,293.62085 497.960968,294.340088 497.247223,295.071777 496.557556,295.778778 495.875549,296.477997 495.18338,297.187561 494.481354,297.907288 493.788635,298.617554 493.105988,299.317352 492.414825,300.026001 491.715088,300.743347 491.026978,301.448761 490.310852,302.182983 489.606934,302.904602 488.895355,303.634033 488.176392,304.371277 487.492188,305.072723 486.780029,305.802795 486.082611,306.517822 485.400452,307.217072 484.712402,307.922363 484.018585,308.633789 483.318909,309.351105 482.635986,310.051147 481.925079,310.779907 481.231628,311.491058 480.555786,312.183868 479.875244,312.881592 479.189941,313.584106 478.499969,314.291473 477.80542,315.003479 477.106323,315.720215 476.426697,316.416962 475.718811,317.1427 475.030792,317.848053 474.314423,318.582458 473.618256,319.296173 472.94281,319.988617 472.263763,320.684814 471.581116,321.384613 470.89505,322.087982 470.205475,322.794952 469.512451,323.505432 468.816071,324.21933 468.116394,324.936646 467.439056,325.631073 466.732941,326.354919 466.049561,327.055573 465.33728,327.785797 464.647949,328.492493 463.929688,329.228851 463.23465,329.941406 462.510529,330.683807 461.809967,331.402008 461.10672,332.122955 460.400879,332.846588 459.692474,333.572876 458.981476,334.301697 458.268097,335.033112 457.552246,335.767029 456.833984,336.503387 456.113312,337.242157 455.39035,337.983368 454.665161,338.726868 453.992615,339.41629 453.290649,340.135895 452.614471,340.829285 451.908661,341.552856 451.228638,342.249908 450.519043,342.977325 449.835693,343.67804 449.122589,344.409149 448.435699,345.113281 447.719055,345.8479 447.029083,346.55545 446.309174,347.293427 445.615906,348.004059 444.892883,348.7453 444.196838,349.459045 443.470764,350.203369 442.771698,350.919922 442.071472,351.637909 441.369781,352.357147 440.667023,353.077789 439.962799,353.799591 439.257629,354.522705 438.551056,355.246918 437.843506,355.972412 437.134674,356.698944 436.425018,357.426697 435.714142,358.155334 435.002411,358.885132 434.28949,359.615814 433.575928,360.347595 432.861206,361.080109 432.145752,361.813721 431.429413,362.548065 430.712311,363.283295 429.994385,364.019196 429.275818,364.755981 428.556396,365.493408 427.836487,366.231598 427.115784,366.970367 426.394623,367.709808 425.672729,368.449738 424.95047,369.190338 424.227539,369.931335 423.504333,370.672943 422.780487,371.414856 422.056396,372.157318 421.331848,372.900055 420.607025,373.643188 419.881836,374.386597 419.156494,375.130371 418.430725,375.874237 417.704956,376.618469 416.978821,377.362732 416.252747,378.107269 415.526398,378.851776 414.80011,379.596497 414.073669,380.341125 413.34729,381.085846 412.620911,381.830505 411.894684,382.575104 411.168427,383.31958 410.442383,384.063904 409.716431,384.808136 408.990753,385.552124 408.265289,386.295898 407.54007,387.039368 406.815155,387.782593 406.090546,388.525391 405.366333,389.267914 404.642517,390.009949 403.919098,390.751617 403.196167,391.492737 402.473694,392.233398 401.75177,392.97348 401.030457,393.713043 400.309692,394.451935 399.589539,395.190247 398.870087,395.927826 398.151337,396.664734 397.433289,397.400818 396.715973,398.136169 395.999481,398.870728 395.283844,399.604462 394.569031,400.337219 393.855164,401.069183 393.142181,401.800049 392.430115,402.530029 391.719116,403.258972 391.009094,403.986847 390.300232,404.713623 389.592346,405.439301 388.885681,406.163849 388.180115,406.887177 387.4758,407.609253 386.772583,408.330078 386.07074,409.049652 385.370209,409.767883 384.670959,410.484741 383.973083,411.200256 383.248169,411.943359 382.553192,412.655853 381.83139,413.395874 381.139343,414.105347 380.420715,414.842041 379.731873,415.548218 379.016663,416.281494 378.331116,416.984314 377.619354,417.71402 376.937317,418.4133 376.229156,419.139221 375.550659,419.834839 374.846313,420.556915 374.171509,421.248718 373.47113,421.966797 372.80014,422.654602 372.103882,423.3685 371.409729,424.080139 370.717712,424.789581 370.027893,425.496765 369.340393,426.201599 368.655151,426.904114 367.972198,427.604248 367.291656,428.302002 366.613495,428.997253 365.937744,429.690002 365.264465,430.380219 364.54126,431.121704 363.847107,431.833313 363.129761,432.568726 362.441345,433.274475 361.730072,434.003662 361.047607,434.703369 360.342468,435.426208 359.666138,436.119629 358.967468,436.835876 358.246948,437.574615 357.530029,438.309509 356.816803,439.04071 356.107361,439.768097 355.401672,440.491547 354.69986,441.21106 354.001892,441.926575 353.2836,442.662964 352.59375,443.370178 351.883972,444.0979 351.202454,444.7966 350.501343,445.51532 349.781281,446.253601 349.066101,446.986786 348.355835,447.714935 347.650665,448.437866 346.950562,449.15564 346.255615,449.868103 345.543304,450.598328 344.859009,451.299866 344.157898,452.018646 343.440552,452.754028 342.729431,453.483032 342.024658,454.205658 341.326233,454.921631 340.634277,455.631042 339.927826,456.355225 339.249207,457.051025 338.556702,457.760925 337.871399,458.463501 337.153137,459.19989 336.463013,459.90741 335.761169,460.626953 335.04837,461.357697 334.344666,462.079163 333.650116,462.791199 332.946228,463.512817 332.233887,464.243103 331.532166,464.962494 330.841125,465.670898 330.143433,466.38623 329.457275,467.089661 328.749023,467.815735 328.037231,468.545502 327.339294,469.260986 326.639557,469.978394 325.939148,470.696472 325.254547,471.398346 324.571075,472.098969 323.875671,472.811951 323.170898,473.534424 322.473114,474.249817 321.783905,474.95639 321.092194,475.665588 320.401123,476.374023 319.713989,477.078491 319.012024,477.798065 318.31308,478.514679 317.622498,479.222687 316.923584,479.939178 316.230682,480.649567 315.528717,481.369232 314.826477,482.089172 314.127289,482.805878 313.429169,483.521576 312.728027,484.234375 311.998596,484.920654 311.269989,485.606262 310.542938,486.290283 309.814453,486.975647 309.082489,487.664276 308.357758,488.346191 307.630341,489.030609 306.905975,489.712067 306.181213,490.394073 305.448975,491.082916 304.721161,491.767792 303.987885,492.457642 303.252411,493.149658 302.52533,493.833679 301.802002,494.514221 301.076752,495.196625 300.351349,495.879211 299.627289,496.560333 298.906281,497.238678 298.171967,497.929596 297.451904,498.606995 296.729614,499.286682 295.99649,499.976379 295.262451,500.667053 294.537781,501.348846 293.813965,502.029846 293.081879,502.718658 292.351776,503.405579 291.614319,504.099396 290.889984,504.780884 290.169403,505.458771 289.443115,506.142212 288.711212,506.83075 287.984558,507.514618 287.263367,508.192993 286.537933,508.875641 285.80838,509.561951 285.085571,510.241974 284.348785,510.935303 283.619385,511.621613 282.887024,512.310608 282.15213,513.002075 281.414856,513.695801 280.697052,514.370972 279.966736,515.058105 279.245789,515.736572 278.512726,516.42627 277.789429,517.106628 277.054626,517.798035 276.330139,518.479614 275.594543,519.171753 274.869873,519.853638 274.134491,520.545532 273.410522,521.226562 272.676453,521.917297 271.954224,522.596802 271.222412,523.285339 270.50293,523.96228 269.774384,524.647705 269.03714,525.34137 268.302246,526.032837 267.569977,526.721802 266.840607,527.40802 266.11441,528.091248 265.381104,528.78125 264.662079,529.457703 263.936615,530.140259 263.215515,530.818726 262.478516,531.512085 261.756958,532.19104 261.030579,532.87439 260.310059,533.552307 259.575775,534.243164 258.838409,534.93689 258.108398,535.623718 257.386108,536.303406 256.662262,536.984375 255.928192,537.675049 255.19429,538.365601 254.470474,539.046631 253.748138,539.726196 253.019211,540.411987 252.293777,541.094482 251.572769,541.772888 250.848755,542.454041 250.123322,543.136658 249.398071,543.81897 248.674744,544.499512 247.940109,545.190735 247.204834,545.882507 246.478943,546.565552 245.744263,547.256714 245.018921,547.939148 244.294052,548.621094 243.569702,549.302673 242.842346,549.987061 242.112488,550.673767 241.380981,551.361938 240.649002,552.050659 239.923309,552.733398 239.192993,553.420532 238.464279,554.10614 237.731445,554.787354 236.998978,555.467407 236.265091,556.148743 235.532288,556.829163 234.801102,557.508057 234.068542,558.18811 233.337204,558.867126 232.603409,559.54834 231.871796,560.227783 231.140488,560.906616 230.410431,561.584473 229.67659,562.265869 228.947006,562.943176 228.215134,563.622742 227.478333,564.306702 226.743637,564.988953 226.007904,565.671936 225.272812,566.354492 224.539948,567.034973 223.81076,567.711975 223.081299,568.389282 222.347336,569.070679 221.615326,569.750183 220.886475,570.427002 220.156311,571.104797 219.42598,571.782837 218.696457,572.460205 217.968735,573.135864 217.233215,573.818787 216.496384,574.50293 215.764709,575.182251 215.034058,575.860535 214.300568,576.541565 213.570816,577.219116 212.836197,577.901184 212.098663,578.585938 211.365143,579.266968 210.62825,579.951111 209.899963,580.627319 209.16925,581.305786 208.435577,581.986816 207.699509,582.670288 206.962875,583.354126 206.232803,584.031982 205.499954,584.712402 204.764633,585.395142 204.031647,586.075684 203.299942,586.755005 202.56543,587.437012 201.831985,588.11792 201.095169,588.793579 200.356522,589.466614 199.617096,590.140625 198.877914,590.814331 198.138702,591.488159 197.399384,592.161987 196.660263,592.835632 195.921402,593.509094 195.167892,594.166626 194.167908,594.166565 193.168198,594.166626 192.167999,594.166626 191.714661,593.274963 191.409821,592.322327 191.157272,591.355103 191.021393,590.36438 190.885452,589.372925 190.749664,588.382935 190.613739,587.391907 190.477844,586.400818 190.482971,585.401001 190.671509,584.41925 190.860229,583.436401 191.048584,582.455261 191.23703,581.473816 191.425446,580.492676 191.614105,579.509827 191.802765,578.527222 191.991302,577.545227 192.342133,576.608887 192.700836,575.674683 193.059784,574.740112 193.418228,573.806641 193.776398,572.873901 194.134659,571.940918 194.492981,571.007812 194.851318,570.074707 195.212555,569.142395 195.67424,568.254639 196.134827,567.368835 196.596649,566.480774 197.05809,565.593201 197.520401,564.704468 197.981552,563.817505 198.444275,562.927612 198.904724,562.042114 199.366394,561.154297 199.828232,560.266296 200.28804,559.381958 200.750168,558.493286 201.211319,557.606384 201.674133,556.71637 202.134781,555.830566 202.597488,554.940674 203.059204,554.052734 203.521637,553.163452 203.983582,552.275146 204.445282,551.387207 204.906754,550.499817 205.367706,549.613342 205.951141,548.800842 206.644165,548.079041 207.337723,547.356506 208.02951,546.635925 208.723648,545.912781 209.416992,545.190613 210.109055,544.469666 210.802261,543.747559 211.496307,543.024658 212.190704,542.301331 212.883896,541.579224 213.575043,540.859314 214.265625,540.139893 214.956985,539.4198 215.647614,538.700378 216.339142,537.980042 217.031006,537.259338 217.723145,536.538391 218.416656,535.815918 219.108673,535.095093 219.801529,534.373413 220.494644,533.651367 221.277267,533.028931 222.11882,532.492126 222.963394,531.953552 223.806015,531.416199 224.65155,530.876953 225.491455,530.34137 226.333252,529.804443 227.174469,529.267883 228.021866,528.727539 228.8629,528.191223 229.709793,527.651062 230.557892,527.110107 231.397766,526.574524 232.240982,526.036743 233.084808,525.498535 233.932068,524.958252 234.780563,524.417175 235.628235,523.876587 236.473129,523.337646 237.313538,522.801636 238.153442,522.265991 238.997101,521.727966 239.837357,521.192139 240.684235,520.652039 241.524902,520.115845 242.369492,519.577271 243.216461,519.037109 244.058701,518.499939 244.90036,517.963257 245.745331,517.424255 246.586365,516.887939 247.432434,516.348328 248.270584,515.813782 249.109283,515.278931 249.950851,514.742188 250.792023,514.20575 251.638718,513.665771 252.481293,513.128418 253.323624,512.591187 254.163132,512.055786 255.007446,511.517365 255.847595,510.981537 256.688232,510.445374 257.531555,509.907593 258.372986,509.370972 259.217865,508.832123 260.069458,508.30835 261.009552,507.970764 261.950043,507.632843 262.890259,507.295197 263.833618,506.956329 264.777527,506.617249 265.71698,506.279816 266.659088,505.941467 267.602997,505.602448 268.541626,505.265259 269.483185,504.927002 270.427673,504.58786 271.36554,504.250916 272.308167,503.912262 273.250061,503.573975 274.188782,503.236755 275.128113,502.899384 276.070496,502.560852 277.010254,502.223328 277.948639,501.886292 278.890656,501.547913 279.832733,501.209503 280.771973,500.872131 281.714355,500.53363 282.65509,500.19574 283.610748,499.899353 284.58078,499.66156 285.55188,499.423523 286.524323,499.185181 287.493774,498.94754 288.466888,498.709106 289.436768,498.471344 290.407196,498.233521 291.378052,497.995575 292.349701,497.757446 293.322388,497.519043 294.293701,497.280945 295.265076,497.042847 296.235962,496.804901 297.23053,496.703979 298.227386,496.790497 299.223755,496.877106 300.219086,496.96344 301.216461,497.050079 302.213715,497.136597 303.208679,497.222992 304.204193,497.309387 305.200684,497.395905 306.196594,497.482361 307.187439,497.617218 308.17691,497.764496 309.166412,497.911743 310.155121,498.058777 311.143982,498.205933 312.126648,498.389862 313.039246,498.797302 313.952332,499.204834 314.865204,499.612396 315.777985,500.019897 316.690613,500.427338 317.603668,500.835205 318.490631,501.297211 319.420013,501.666626 320.420227,501.666656 321.42041,501.666626 322.42038,501.666656 323.420044,501.666626 324.420288,501.666687 325.283691,501.162689 325.976379,500.441254 326.755707,499.814758 327.642609,499.352814 328.625153,499.166656 329.625061,499.166687 330.618652,499.052856 331.505463,498.590881 332.278595,497.955994 332.872498,497.151733 333.46637,496.347504 334.060669,495.542725 334.653931,494.739594 335.247528,493.935547 335.840668,493.132446 336.43457,492.328156 337.029053,491.523132 337.623016,490.718842 338.21759,489.913696 338.812256,489.108398 339.406525,488.30365 340.000549,487.499268 340.530396,486.650024 341.059296,485.80246 341.589142,484.953308 342.118408,484.105194 342.646576,483.258789 343.176788,482.408813 343.705475,481.561737 344.236084,480.711426 344.765503,479.863037 345.295959,479.012848 345.825562,478.164185 346.355286,477.315308 346.885559,476.465454 347.415588,475.616028 347.945221,474.767212 348.475464,473.917419 349.004456,473.069824 349.532959,472.222778 350.06192,471.375061 350.588287,470.525055 351.109528,469.671875 351.630585,468.818878 352.151886,467.965729 352.673218,467.112213 353.193665,466.260193 353.716461,465.404694 354.237946,464.550934 354.759094,463.697998 355.279114,462.846741 355.801483,461.991486 356.323853,461.136505 356.843658,460.285614 357.36496,459.432312 357.887695,458.576721 358.407776,457.725403 358.930115,456.870361 359.4505,456.018616 359.972626,455.163849 360.494965,454.308899 361.016785,453.454742 361.538269,452.601074 362.056641,451.746948 362.573883,450.893707 363.093842,450.036285 363.612152,449.181366 364.129791,448.327515 364.649719,447.470062 365.166382,446.61792 365.684723,445.762909 366.201324,444.91098 366.721283,444.053406 367.238617,443.200043 367.755554,442.347626 368.272156,441.495697 368.791748,440.638702 369.309814,439.784149 369.830292,438.925781 370.346039,438.075165 370.866791,437.216278 371.385681,436.360504 371.903992,435.505615 372.423309,434.649078 372.942169,433.793304 373.461884,432.936157 373.980835,432.080261 374.497284,431.228516 375.017242,430.37085 375.533234,429.519867 376.052704,428.663055 376.572266,427.806213 377.090088,426.952087 377.607971,426.097961 378.125305,425.244751 378.644135,424.388977 379.162201,423.534576 379.680542,422.679688 380.198517,421.825409 380.716919,420.970337 381.2099,420.101318 381.69812,419.229614 382.186829,418.356873 382.675232,417.484589 383.164276,416.611359 383.653046,415.738647 384.140625,414.867798 384.630127,413.993835 385.119049,413.12085 385.607544,412.248505 386.096649,411.375122 386.586182,410.500854 387.074493,409.628876 387.563019,408.756531 388.052887,407.881714 388.541351,407.00943 389.02948,406.137817 389.517822,405.265747 390.005432,404.395081 390.493591,403.523346 390.981384,402.652344 391.469208,401.781128 391.957642,400.908936 392.450287,400.037994 392.94223,399.169098 393.436157,398.296631 393.929993,397.424255 394.424347,396.551056 394.916534,395.681793 395.40918,394.811676 395.901031,393.942932 396.395599,393.069458 396.886169,392.20285 397.378906,391.332428 397.871185,390.463013 398.365692,389.589447 398.860657,388.715393 399.351471,387.848328 399.844574,386.977325 400.338654,386.104797 400.829498,385.237762 401.323975,384.364288 401.815491,383.496216 402.308075,382.62616 402.803131,381.751648 403.296631,380.880066 403.789642,380.009186 404.280762,379.141785 404.775665,378.267639 405.267242,377.399292 405.758087,376.532349 406.25235,375.659363 406.743835,374.791199 407.236938,373.920258 407.729401,373.050385 408.220642,372.182709 408.714233,371.310852 409.206848,370.440674 409.700623,369.568665 410.19339,368.698334 410.67157,367.819 411.137817,366.936035 411.604187,366.052551 412.07019,365.170013 412.536987,364.286041 413.003937,363.401489 413.470459,362.518219 413.93808,361.632355 414.406006,360.746155 414.872864,359.862061 415.340149,358.976868 415.805847,358.09491 416.272186,357.211761 416.7388,356.328064 417.206451,355.442322 417.672729,354.559296 418.139374,353.675354 418.606567,352.790649 419.073273,351.906738 419.578186,351.04306 420.095795,350.189148 420.613434,349.33551 421.131714,348.480621 421.64978,347.626129 422.168427,346.770691 422.687531,345.914612 423.205292,345.060883 423.724548,344.204376 424.242493,343.350037 424.762115,342.493011 425.280518,341.638 425.799377,340.782257 426.31842,339.926239 426.837646,339.069885 427.356049,338.214844 427.875183,337.358643 428.393372,336.504028 428.90567,335.644653 429.393738,334.773071 429.881714,333.901672 430.370667,333.028473 430.858978,332.156525 431.348053,331.283234 431.836853,330.4104 432.3255,329.53775 432.814728,328.664124 433.303284,327.791687 433.792145,326.918701 434.280579,326.04657 434.631439,325.110016 434.936218,324.157623 435.240967,323.2052 435.545898,322.252411 435.850769,321.299652 436.305695,320.408813 436.890137,319.597107 437.474182,318.785889 438.058533,317.974182 438.399994,317.03421 438.886017,316.1604 439.199951,315.211029 439.199982,314.210999 439.002716,313.23056 438.115631,312.768555 437.146027,312.526245 436.147339,312.584045 435.149139,312.641876 434.149902,312.699615 433.15213,312.757355 432.154938,312.815094 431.158081,312.872772 430.160614,312.930511 429.163086,312.98822 428.16272,313.046112 427.163452,313.103943 426.163635,313.161835 425.166077,313.219543 424.167725,313.277313 423.169189,313.332214 422.171143,313.295013 421.170715,313.257843 420.170959,313.220642 419.169495,313.18338 418.1716,313.14624 417.173645,313.109131 416.175476,313.07196 415.173187,313.034668 414.174561,312.997528 413.176056,312.960388 412.175568,312.923187 411.177032,312.886017 410.174713,312.848755 409.175995,312.811584 408.176483,312.774414 407.179993,312.737335 406.181061,312.700165 405.1828,312.663055 404.183838,312.625854 403.186584,312.588806 402.186859,312.551575 401.187866,312.514435 400.207733,312.321411 399.249634,312.032501 398.29422,311.744446 397.33493,311.455139 396.376343,311.166077 395.415863,310.876495 394.456757,310.58728 393.501038,310.299072 392.54129,310.009705 391.586151,309.72171 390.626526,309.432343 389.667847,309.14325 388.710846,308.854706 387.755493,308.566589 386.801178,308.278839 385.842651,307.989807 384.887726,307.701904 383.930878,307.41333 382.9711,307.123962 382.01651,306.836121 381.062317,306.54837 380.108582,306.260803 379.15213,305.972412 378.191223,305.682648 377.237488,305.39505 376.277588,305.105591 375.318054,304.816284 374.360199,304.527466 373.400818,304.238159 372.442993,303.949371 371.485504,303.660614 370.528564,303.372101 369.697266,302.814819 368.890961,302.219879 368.08786,301.627289 367.282074,301.032776 366.47757,300.439178 365.674866,299.846893 364.869812,299.252869 364.06665,298.660248 363.264221,298.068207 362.461761,297.476074 361.659637,296.884247 360.857635,296.292511 360.055389,295.700531 359.252136,295.10791 358.447754,294.514404 357.642761,293.92041 356.836121,293.325195 356.033813,292.733276 355.229614,292.139893 354.423401,291.545044 353.620026,290.95224 352.814667,290.358032 352.010315,289.764526 351.205658,289.170837 350.511932,288.44989 349.818939,287.728027 349.126465,287.006683 348.434204,286.285645 347.741028,285.563507 347.048645,284.842346 346.356415,284.121277 345.665039,283.401031 344.973816,282.68103 344.28244,281.960876 343.590332,281.239868 342.898193,280.518951 342.206329,279.798248 341.513611,279.076691 340.821686,278.355896 340.129395,277.634766 339.436096,276.912567 338.743439,276.19104 338.050659,275.469421 337.358459,274.748383 336.665771,274.026825 335.973236,273.30545 335.28064,272.583984 334.815308,271.698608 334.400024,270.789093 335.014282,269.999969 336.014801,270 337.014557,270 337.993256,270.204834 338.88031,270.666809 339.767548,271.128937 340.65451,271.590912 341.54184,272.05304 342.428802,272.515015 343.315887,272.97702 344.203003,273.439026 345.089569,273.900818 346.043884,274.199677 347.040741,274.273865 348.037109,274.347961 349.03418,274.42218 350.032959,274.49649 351.030273,274.570709 352.029114,274.64502 353.026123,274.719177 354.024292,274.793457 355.022278,274.867737 356.019592,274.941956 357.018524,274.999969 358.019989,275 359.022583,275 360.023682,275 361.024078,274.999969 362.023407,275.000031 363.02774,275 364.026123,275.000031 365.022095,274.999969 366.019928,274.999969 367.021912,275.000031 368.0271,275 369.02475,274.999969 370.026917,275.000061 371.029785,275 372.024384,275.000031 373.024933,275.000031 374.028961,274.999969 375.028168,274.999969 376.026184,275 377.026672,274.999969 378.021576,275 379.020721,275.000031 380.01593,275 381.016846,275 382.015228,275 383.020081,275 384.017029,275 385.014618,275 386.014771,275 387.018707,275 388.016174,275 389.01712,275 390.014282,275 391.017609,275.000031 392.014648,275 393.014832,275 394.016846,275 395.019897,275 396.019409,275.000031 397.018555,275 398.018555,274.980164 399.018036,274.932892 400.01947,274.885468 401.021545,274.838013 402.018921,274.790771 403.017059,274.743469 404.01532,274.696259 405.011322,274.649078 406.008911,274.601837 407.007538,274.554565 408.008789,274.507172 409.011414,274.459686 410.015198,274.41217 411.015533,274.364777 412.018738,274.317261 413.021332,274.269806 414.02002,274.222534 415.017029,274.175354 416.014435,274.128113 417.009583,274.080994 418.009766,274.03363 419.006744,273.98642 420.007355,273.939026 421.007965,273.891663 422.009247,273.844238 423.006531,273.797028 424.008362,273.749603 425.007629,273.702271 426.008942,273.654877 427.009155,273.607483 428.00882,273.560181 429.007935,273.512878 430.005554,273.465637 431.00238,273.418427 432.002075,273.371094 433.00119,273.38501 433.967896,273.633331 434.933868,273.881409 435.904785,274.130768 436.869476,274.37854 437.837341,274.627136 438.802673,274.875122 439.766144,275.122559 440.736938,275.371918 441.71106,275.622101 442.673798,275.869415 443.637512,276.116913 444.604004,276.365143 445.569244,276.613098 446.543915,276.863434 447.517914,277.113586 448.480804,277.360901 449.453003,277.610657 450.416992,277.858215 451.386505,278.107239 452.359985,278.357269 453.328003,278.605896 454.29718,278.854828 455.266235,279.10376 456.242188,279.354401 457.207306,279.602325 458.168762,279.849243 459.134033,280.097168 460.10202,280.345825 461.071991,280.594971 462.03421,280.842102 463.005005,281.091431 463.966217,281.338348 464.934113,281.586945 465.899109,281.834778 466.860229,282.081665 467.833405,282.331635 468.808899,282.582184 469.777344,282.830902 470.745789,283.079651 471.721161,283.3302 472.693787,283.580017 473.670105,283.83075 474.632812,284.078033 475.603577,284.327393 476.564941,284.57431 477.529907,284.822144 478.502838,285.072052 479.473206,285.321289 480.444275,285.570679 481.411987,285.819275 482.377869,286.067352 483.342102,286.315002 484.308868,286.563354 485.2789,286.8125 486.24353,287.060242 487.213501,287.309387 488.185181,287.55896 489.152344,287.807373 490.12262,288.05661 491.091217,288.305359 492.001251,288.723694 492.900177,289.161682 493.800354,289.600281 494.701599,290.039398 495.601685,290.477966 496.501099,290.916168 497.396606,291.352478 498.298553,291.791962 499.196594,292.229523 500.093323,292.666382 500.987488,293.102081 501.886169,293.539978 502.785156,293.977966 503.687378,294.417542 504.583282,294.854095 505.47644,295.289276 506.371399,295.725311 507.266022,296.161194 508.158447,296.596008 509.061218,297.035858 509.96579,297.476624 510.863708,297.914093 511.760956,298.351288 512.663208,298.790863 513.562256,299.228943 514.464172,299.668365 515.36792,300.108673 516.272461,300.549438 517.176636,300.989929 518.079407,301.42981 518.979736,301.868469 519.876526,302.30545 520.775879,302.743622 521.676514,303.182434 522.57019,303.617859 523.462769,304.052765 524.35968,304.489746 525.259277,304.928101 526.153198,305.363586 527.052795,305.801941 527.955811,306.241913 528.853271,306.679199 529.749023,307.115601 530.645996,307.552643 531.540405,307.988434 532.439331,308.426422 533.336731,308.863647 534.236572,309.302063 535.134399,309.739563 536.037354,310.179504 536.93689,310.617737 537.836609,311.056152 538.738098,311.495361 539.63855,311.934082 540.536804,312.371765 541.414429,312.850647 542.28009,313.344849 543.147156,313.839661 544.012573,314.333679 544.883362,314.830719 545.75647,315.329071 546.623901,315.824127 547.496399,316.322144 548.362976,316.816742 549.22644,317.309601 550.098877,317.807587 550.969116,318.304321 551.839539,318.801117 552.706116,319.295715 553.572815,319.790466 554.444214,320.287811 555.311035,320.782562 556.185852,321.281891 557.052124,321.776337 557.92334,322.273621 558.798462,322.773071 559.667969,323.269409 560.530884,323.761932 561.393738,324.254364 562.26416,324.75119 563.132751,325.246979 564.00708,325.746063 564.869507,326.238281 565.744629,326.737793 566.614868,327.234497 567.48761,327.732635 568.362549,328.232056 569.238708,328.732147 570.115479,329.232544 570.992065,329.73291 571.867981,330.232849 572.742432,330.731934 573.614563,331.229767 574.483826,331.725922 575.349548,332.220032 576.219299,332.716492 577.092285,333.214752 577.959229,333.709595 578.827698,334.205322 579.688599,334.696686 580.55719,335.192444 581.424194,335.687317 582.288574,336.180695 583.15686,336.67627 584.027466,337.173187 584.891235,337.666229 585.761475,338.162903 586.635742,338.661957 587.504639,339.157867 588.379517,339.657227 589.243591,340.150391 590.113403,340.646912 590.984253,341.143982 591.85675,341.641968 592.724182,342.137085 593.594971,342.634094 594.467834,343.132294 595.332031,343.625549 596.197266,344.119415 597.062622,344.613342 597.932739,345.109985 598.800293,345.605133 599.690674,346.060455 600.596436,346.479828 601.505432,346.900665 602.413879,347.321228 603.323853,347.742462 604.232971,348.163391 605.139465,348.583038 606.047729,349.003571 606.952271,349.422302 607.862671,349.843811 608.771606,350.264587 609.681946,350.686066 610.588257,351.105652 611.493896,351.524933 612.402466,351.945587 613.310486,352.365967 614.219543,352.786804 615.126282,353.206604 616.033081,353.626373 616.942078,354.047241 617.850952,354.468018 618.757202,354.887573 619.666077,355.30835 620.573853,355.728638 621.526245,356.035034 622.490784,356.302948 623.454285,356.570618 624.419189,356.838654 625.381226,357.105865 626.346008,357.373871 627.309204,357.641449 628.272705,357.909058 629.236938,358.17691 630.201355,358.444794 631.164124,358.712219 632.126953,358.979675 633.101379,359.205902 634.09314,359.335022 635.085266,359.464233 636.077393,359.593414 637.069824,359.722656 638.06134,359.851746 639.052795,359.980835 639.809326,360.634644 640,360.833313" stroke="#e8b222" stroke-width="5" fill="none"></path>

</svg>