<?xml version="1.0" encoding="UTF-8"?>
<!DOCTYPE svg>
<svg viewBox="262.399994 91.673874 451.200104 359.992859" xmlns="http://www.w3.org/2000/svg">

	<rect x="262.399994" y="91.673874" width="451.200104" height="359.992859" fill="#faebd7"></rect>

	<path d="M 421.600006,295 L 421.808685,295.97821 422.017303,296.956299 422.225983,297.934082 422.43457,298.912018 422.643311,299.890533 422.851929,300.868469 423.060669,301.846863 423.346466,302.805115 423.778961,303.706146 424.211609,304.607544 424.644348,305.509064 425.077179,306.410797 425.509674,307.311829 425.9422,308.212891 426.374939,309.114471 426.807617,310.015961 427.240417,310.917542 427.67334,311.819427 428.115662,312.716797 428.586548,313.599823 429.05719,314.482269 429.527283,315.36377 429.99762,316.245605 430.468079,317.127655 430.939117,318.010803 431.409546,318.892944 431.880066,319.775146 432.564087,320.503632 433.310425,321.170044 434.055817,321.835541 434.802063,322.501831 435.547363,323.167297 436.29303,323.833099 437.038452,324.498596 437.83252,325.105957 438.743195,325.520935 439.652344,325.935333 440.56308,326.350342 441.473358,326.765198 442.383606,327.180054 443.292572,327.594269 444.201538,328.008514 445.110596,328.42276 446.020905,328.837646 446.93103,329.252441 447.839722,329.666504 448.748901,330.080872 449.658844,330.495544 450.585144,330.871887 451.56427,331.075867 452.543915,331.279968 453.523834,331.4841 454.502838,331.68808 455.482941,331.892212 456.461487,332.09613 457.440338,332.300049 458.420837,332.504333 459.400513,332.708435 460.379303,332.912323 461.358643,333.116364 462.337555,333.320313 463.333649,333.230927 464.327332,333.121948 465.321686,333.012939 466.317322,332.903778 467.309753,332.794922 468.301758,332.686218 469.295105,332.577301 470.290497,332.46814 471.283691,332.359222 472.276306,332.250397 473.268677,332.141602 474.263367,332.032532 475.258301,331.923431 476.251801,331.814514 477.245178,331.705566 478.23114,331.535217 479.210754,331.331116 480.190704,331.126923 481.170074,330.922913 482.148102,330.719116 483.126282,330.515381 484.104645,330.311523 485.083435,330.107666 486.069611,329.945618 487.062653,329.830719 488.055695,329.715759 489.049713,329.600708 490.04306,329.485748 491.036377,329.370758 492.030182,329.255798 493.007629,329.04306 493.867462,328.531189 494.727234,328.019531 495.587341,327.507599 496.446899,326.99588 497.30661,326.484131 498.165802,325.972717 499.111359,325.648071 500.078918,325.396118 501.046997,325.144012 501.600006,325" stroke="#e8b222" stroke-width="5" fill="none"></path>
	<path d="M 441.600006,255 L 442.070221,254.118347 442.541107,253.235413 443.011902,252.3526 443.482574,251.470169 443.95343,250.587341 444.423889,249.705139 444.894104,248.823578 445.364563,247.941406 445.952484,247.132782 446.644684,246.411896 447.337891,245.689758 448.031189,244.967468 448.723999,244.245926 449.416687,243.524338 450.109711,242.802399 450.802551,242.080673 451.494965,241.359406 452.186829,240.638733 452.878784,239.917938 453.57132,239.196564 454.35614,238.575928 455.143982,237.960464 455.931335,237.345261 456.719818,236.729248 457.508148,236.113373 458.296265,235.497711 459.084381,234.881958 459.872314,234.266418 460.792023,233.871994 461.729736,233.523163 462.665619,233.174988 463.601532,232.826767 464.537659,232.478516 465.476166,232.129395 466.412842,231.780945 467.349487,231.432465 468.28656,231.083862 469.222809,230.735565 470.159424,230.387131 471.096649,230.038467 472.061188,229.775742 473.029297,229.523636 473.996948,229.271667 474.964081,229.01976 475.931824,228.767746 476.899506,228.515747 477.882813,228.333313 478.882507,228.333374 479.882599,228.333344 480.88205,228.333328 481.882263,228.333328 482.881958,228.333328 483.88208,228.333344 484.882111,228.333313 485.881866,228.333344 486.881866,228.333344 487.882965,228.333328 488.88324,228.333344 489.884003,228.333313 490.884155,228.333313 491.873444,228.473618 492.851501,228.677353 493.830536,228.881378 494.811005,229.085617 495.789734,229.28952 496.768799,229.493469 497.749512,229.6978 498.727417,229.90152 499.704956,230.105194 500.685181,230.309402 501.664337,230.513397 502.643311,230.717346 503.590698,231.036804 504.476868,231.498383 505.362762,231.959778 506.248962,232.421341 507.13562,232.883118 508.022675,233.345154 508.90863,233.806549 509.79599,234.268738 510.683167,234.730789 511.570374,235.192886 512.456604,235.654465 513.342834,236.116043 514.229614,236.577927 515.115662,237.039413 516.003113,237.501648 516.890381,237.963715 517.777649,238.425842 518.664551,238.887756 519.515198,239.412888 520.303528,240.028748 521.091553,240.64447 521.880432,241.260696 522.667847,241.8759 523.455994,242.491638 524.244324,243.107513 525.032349,243.72316 525.830017,244.326309 526.651978,244.897156 527.473755,245.46785 528.294983,246.038193 529.116211,246.608475 529.937805,247.179031 530.689575,247.839279 531.338562,248.599792 531.987793,249.360718 532.636169,250.120499 533.284485,250.88031 533.933716,251.641037 534.582275,252.401077 535.231506,253.161942 535.880981,253.923035 536.529663,254.683258 537.014282,255.558044 537.372559,256.490997 537.730957,257.424377 538.089355,258.357605 538.400085,259.308258 538.400085,260.307709 538.399963,261.308105 538.400024,262.308289 538.400024,263.308075 538.400024,264.307648 538.400085,265.307861 538.400024,266.3078 538.400024,267.308197 538.399963,268.308655 538.400024,269.308533 538.400085,270.308563 538.400024,271.308533 538.400024,271.666656" stroke="#e8b222" stroke-width="5" fill="none"></path>
	<path d="M 421.600006,208.333328 L 420.752167,207.803436 419.904907,207.273895 419.0578,206.744415 418.210144,206.214661 417.362244,205.684723 416.51474,205.15506 415.666473,204.624863 414.818085,204.09462 413.970367,203.564789 413.08844,203.093536 412.182251,202.668762 411.275146,202.24353 410.37088,201.819656 409.465088,201.395096 408.560577,200.971115 407.653595,200.545959 406.746063,200.120529 405.83905,199.695374 404.933868,199.271103 404.029419,198.847122 403.125366,198.42334 402.221436,197.999619 401.317993,197.576141 400.412628,197.151749 399.508514,196.727951 398.602112,196.30307 397.696625,195.878616 396.755646,195.540176 395.810974,195.212128 394.867004,194.884369 393.922668,194.556458 392.978271,194.228546 391.99826,194.027481 391.01297,193.856384 390.027313,193.685287 389.042419,193.514282 388.057251,193.343277 387.222412,192.79335 386.401001,192.2229 385.565308,191.673874 384.586304,191.877884 383.607666,192.081757 382.628784,192.285645 381.649719,192.489639 380.689728,192.770966 379.731049,193.056259 378.772125,193.341629 377.81311,193.627029 376.854797,193.912262 375.906952,194.231293 375.085266,194.801849 374.264099,195.372162 373.448853,195.951385 372.660858,196.567001 371.873077,197.18248 371.084686,197.798401 370.325714,198.449387 369.786743,199.291473 369.247833,200.133621 368.72641,200.98671 368.293549,201.888611 367.861084,202.789398 367.428802,203.690125 366.996124,204.591415 366.563782,205.492081 366.130951,206.39389 365.698303,207.295197 365.182648,208.152115 364.643524,208.9944 364.10498,209.83606 363.56546,210.678986 363.026123,211.521698 362.487122,212.3638 362.399994,213.360077 362.399994,214.359726 362.399994,215.359406 362.399994,216.358841 362.400024,217.358292 362.40799,218.358246 362.712708,219.310699 363.017395,220.262878 363.322021,221.214676 363.626892,222.167343 363.931702,223.119934 364.278076,224.057541 364.636261,224.990189 364.994934,225.924377 365.353577,226.858322 365.711975,227.79155 366.070221,228.724533 366.42865,229.657898 366.787415,230.592163 367.145844,231.525513 367.658966,232.383759 368.198334,233.226547 368.737946,234.069641 369.277039,234.912064 369.816315,235.754623 370.355164,236.596588 370.893951,237.438477 371.433136,238.28093 371.97229,239.123352 372.657196,239.851227 373.350281,240.573166 374.043152,241.294952 374.735565,242.016235 375.427673,242.737167 376.120239,243.458588 376.8125,244.179672 377.504791,244.900848 378.237671,245.581207 378.977295,246.255325 379.716888,246.929459 380.456055,247.603165 381.195648,248.277283 381.934052,248.950302 382.673157,249.623962 383.412537,250.297882 384.131653,250.993301 384.766663,251.765045 385.401917,252.537079 386.037445,253.309326 386.673035,254.081757 387.308563,254.854126 387.944061,255.626465 388.579559,256.398743 389.252716,257.138245 389.945068,257.859436 390.637787,258.581055 391.330566,259.302643 392.03125,260.016296 392.918396,260.478333 393.805115,260.940186 394.691528,261.401825 395.578217,261.863647 396.464966,262.3255 397.408325,262.658417 398.376343,262.910461 399.343994,263.162476 400.329071,263.333344 401.328888,263.333313 402.329102,263.333313 403.328918,263.333313 404.32901,263.333344 404.800018,263.333313" stroke="#e8b222" stroke-width="5" fill="none"></path>
	<path d="M 559.200012,270 L 560.158203,270.285187 561.116638,270.570435 562.075439,270.855774 563.034607,271.141266 563.993469,271.426636 564.942993,271.741119 565.829407,272.202789 566.715942,272.66452 567.601929,273.126038 568.489563,273.588287 569.376709,274.050354 570.263245,274.512085 571.150085,274.973999 572.023926,275.462097 572.895874,275.951172 573.766846,276.439728 574.637817,276.928253 575.511169,277.418091 576.382507,277.906799 577.255798,278.396667 578.129028,278.886444 579.001221,279.37561 579.872742,279.864502 580.744568,280.353485 581.616211,280.843475 582.464172,281.373383 583.312378,281.903503 584.1604,282.433563 585.007813,282.963226 585.855896,283.493256 586.703979,284.023254 587.551758,284.553162 588.39978,285.08313 589.247803,285.613159 590.035461,286.230164 590.775024,286.904236 591.513306,287.577179 592.252563,288.251007 592.99115,288.924225 593.730591,289.598145 594.470276,290.2724 595.209167,290.945831 595.94812,291.619385 596.732361,292.238739 597.520386,292.854462 598.307861,293.469635 599.095398,294.084991 599.883423,294.700562 600.671021,295.315887 601.459106,295.93158 602.247375,296.547363 602.839172,297.352783 603.37854,298.195679 603.918152,299.038666 604.45752,299.881561 604.996704,300.723938 605.536377,301.5672 606.075195,302.40918 606.614563,303.251892 607.153625,304.094116 607.716736,304.920319 608.282776,305.745636 608.848328,306.570496 609.413818,307.395111 609.979797,308.22052 610.545532,309.045563 611.111267,309.870544 611.424988,310.820343 611.689575,311.784729 611.954041,312.749237 612.218384,313.712891 612.482788,314.676666 612.747253,315.641052 612.926575,316.624969 613.084595,317.61264 613.242615,318.599457 613.400635,319.586731 613.558533,320.573975 613.599976,321.573364 613.599976,322.574188 613.600098,323.57373 613.600098,324.574371 613.600037,325.575073 613.600037,326.57428 613.600037,327.574768 613.600098,328.574249 613.600037,329.573822 613.600098,330.574036 613.600037,331.573456 613.600098,332.573975 613.600037,333.573547 613.600037,334.573303 613.34137,335.538849 612.908813,336.440002 612.476135,337.341309 612.043457,338.242676 611.269531,338.87677 610.467224,339.473846 609.665588,340.07016 608.86322,340.667267 608.060486,341.264526 607.258789,341.861023 606.456543,342.457947 605.596008,342.965302 604.73053,343.466125 603.865356,343.966797 602.999268,344.467987 602.134094,344.968689 601.267334,345.470276 600.401611,345.971313 599.536377,346.472046 598.668945,346.97403 597.802063,347.475647 596.9375,347.975952 596.071594,348.477081 595.204773,348.978699 594.340088,349.479156 593.474731,349.979858 592.609131,350.480835 591.683594,350.858612 590.686523,350.938538 589.690735,351.018402 588.694336,351.098175 587.697876,351.17804 586.700256,351.257965 585.704407,351.337769 584.707031,351.417694 583.709595,351.49762 582.712524,351.577515 581.715759,351.65741 580.71521,351.666718 579.714905,351.666656 578.713684,351.666626 577.713928,351.666656 576.713623,351.666626 575.712524,351.666656 574.712708,351.666656 573.713135,351.666687 572.713135,351.666656 571.71228,351.666626 570.711548,351.666626 569.712097,351.666656 568.712097,351.666626 567.712524,351.666626 566.712097,351.666626 565.712646,351.666626 564.713623,351.628113 563.800964,351.220703 562.888428,350.813293 561.975769,350.405853 561.062378,349.998077 560.148987,349.590332 559.235962,349.182709 558.410461,348.618408 557.588989,348.047943 556.774902,347.467377 556.166077,346.674622 555.557373,345.881927 554.94812,345.088593 554.338989,344.295502 553.729736,343.502197 553.175293,342.669617 552.636169,341.827271 552.097168,340.985168 551.430298,340.239868 550.737671,339.518372 550.045227,338.797089 549.405396,338.029053 548.866333,337.187042 548.327271,336.344666 548,335.833313" stroke="#e8b222" stroke-width="5" fill="none"></path>

</svg>