<?xml version="1.0" encoding="UTF-8"?>
<!DOCTYPE svg>
<svg viewBox="167.200012 60 481.600037 425.833313" xmlns="http://www.w3.org/2000/svg">

	<rect x="167.200012" y="60" width="481.600037" height="425.833313" fill="#faebd7"></rect>
	
	<path d="M 404,165 L 402.941925,168.85762 401.944244,172.732101 401.010925,176.621246 400.397522,180.574799 399.878448,184.539642 399.359253,188.505844 398.839752,192.473907 398.293335,196.436218 397.597321,200.37207 396.900726,204.311081 396.20401,208.251129 395.507324,212.19075 394.811066,216.127991 394.115051,220.063568 393.418274,224.003815 392.661835,227.931702 391.443298,231.739594 390.223785,235.550842 389.004639,239.360535 387.785583,243.170166 386.504059,246.961609 385.167633,250.728531 383.829468,254.500244 382.490143,258.27536 381.151672,262.047913 379.813965,265.818512 378.477264,269.586151 377.140381,273.354248 375.803223,277.12326 374.465698,280.893158 373.248688,284.705719 372.257599,288.577118 371.265076,292.454071 370.272736,296.330627 369.280212,300.207397 368.2883,304.082184 367.295746,307.959442 366.303711,311.834442 365.310699,315.713379 364.319153,319.5867 362.964966,323.348999 361.443634,327.046661 359.921753,330.745819 359.200073,334.679626 359.200043,338.679626 359.200012,339.166656 " stroke="#e8b222" stroke-width="5" fill="none"></path>
	<path d="M 453.600006,197.5 L 453.599976,201.49939 453.599976,205.499649 453.599976,209.502594 453.599976,213.503021 453.600037,217.500793 453.600006,221.500687 453.600067,225.500351 453.600006,229.501648 453.600037,233.502045 453.599976,237.502274 453.600037,241.5047 453.599976,245.503113 453.600067,249.504166 453.600006,253.499359 453.600006,257.500183 453.600006,261.50235 453.599976,265.499329 453.600037,269.500305 453.428009,273.49353 453.231232,277.490845 453.034302,281.490295 452.837646,285.486176 452.641113,289.477631 452.444519,293.470673 452.247711,297.468201 452.051086,301.461853 451.63205,305.43811 451.135468,309.404663 450.638733,313.371338 450.141754,317.340179 449.644836,321.308472 448.574188,325.163788 447.447876,329.003571 446.320709,332.846069 445.194183,336.686401 444.068024,340.525604 442.942047,344.364288 441.816345,348.201843 440.712402,352.046936 439.813873,355.946716 438.915344,359.846741 438.017242,363.744781 437.118713,367.644409 436.220764,371.541779 434.686615,375.236267 433.391418,379.02124 432.847931,382.983948 432,385.833313 " stroke="#e8b222" stroke-width="5" fill="none"></path>
	<path d="M 543.200012,245.833328 L 543.199951,249.833557 543.973022,253.757248 544.778931,257.675323 545.584961,261.593353 545.926758,265.580017 546.259399,269.566162 546.592163,273.551697 546.925049,277.539551 547.294434,281.522125 547.838013,285.485413 548.381531,289.448456 548.800049,293.425171 548.799988,297.426849 548.799988,301.426697 548.799988,305.427032 548.799988,309.42569 548.799988,313.423767 548.799988,317.424194 548.799988,321.424316 548.799988,325.421783 548.799988,329.420532 548.800049,333.420288 548.800049,337.420288 548.799927,341.421509 548.800049,345.421051 548.800049,349.422333 548.799988,353.421265 548.799988,357.42041 548.799988,361.419891 548.799988,365.419708 548.799927,369.419312 548.799988,373.333313 " stroke="#e8b222" stroke-width="5" fill="none"></path>
	<path d="M 322.399994,160 L 319.51712,162.7733 317.917114,166.439941 316.3172,170.106384 314.779266,173.800339 313.257416,177.499451 311.734772,181.200134 310.214172,184.896118 308.693329,188.59256 307.172211,192.289764 305.87677,196.074295 304.818695,199.931976 303.77536,203.795212 302.733429,207.654114 301.691162,211.514145 300.648773,215.374985 299.605591,219.238525 298.563202,223.099335 297.481842,226.951233 295.948303,230.645508 294.414551,234.339874 292.881927,238.031815 291.348145,241.726532 289.815735,245.417816 288.282471,249.111313 286.748901,252.805359 285.215729,256.498627 284.554382,260.442322 284.221832,264.426361 283.889221,268.410339 283.556396,272.397461 283.223633,276.38385 281.910217,280.15979 280.524445,283.912964 279.137909,287.668182 277.751617,291.42276 276.366699,295.173523 275.094482,298.965576 274.43576,302.910828 273.776917,306.857361 273.118103,310.803162 272.459503,314.747742 271.58551,318.651398 270.230743,322.414642 269.00766,326.223389 267.900818,330.066711 267.200012,334.005096 267.200012,335.833313 " stroke="#e8b222" stroke-width="5" fill="none"></path>

</svg>
