<?xml version="1.0" encoding="UTF-8"?>
<!DOCTYPE svg>
<svg viewBox="173.600006 76 467.199982 399" xmlns="http://www.w3.org/2000/svg">

	<rect x="173.600006" y="76" width="467.199982" height="399" fill="#faebd7"></rect>

	<path d="M 540.799988,190.833328 L 539.839355,191.112198 539.340515,191.97821 538.841125,192.845261 538.341797,193.712173 537.842468,194.579086 537.33374,195.439163 536.815674,196.293701 536.297363,197.148514 535.779114,198.00325 535.260254,198.8591 534.74115,199.715149 534.223511,200.568848 533.704407,201.425186 533.184937,202.281738 532.667175,203.135818 532.149292,203.989899 531.630066,204.846298 531.111511,205.701447 530.592224,206.557999 530.074768,207.411392 529.556824,208.265671 529.03833,209.120834 528.519897,209.975876 528.001465,210.830994 527.560913,211.729935 527.120605,212.628632 526.68158,213.525146 526.23999,214.426559 525.798706,215.327881 525.359619,216.22403 524.918823,217.124039 524.478455,218.023071 524.036682,218.925079 523.597229,219.822144 523.156006,220.723129 522.71521,221.62326 522.274109,222.52356 521.834778,223.420639 521.395813,224.316833 520.955811,225.215271 520.518616,226.107849 520.07959,227.003983 519.637085,227.907867 519.194275,228.811783 518.755188,229.708084 518.31781,230.601135 517.879883,231.495224 517.442139,232.388931 516.999512,233.292618 516.561584,234.186768 516.123169,235.081726 515.682434,235.981628 515.243103,236.878693 514.805969,237.771133 514.363892,238.673798 513.926208,239.567291 513.488892,240.46019 513.05072,241.354782 512.608459,242.257675 512.167053,243.158844 511.726654,244.058044 511.285767,244.95816 510.844299,245.859619 510.403503,246.759476 509.963257,247.658371 509.523804,248.555603 509.085205,249.451004 508.64447,250.350861 508.205109,251.247864 507.782013,252.153091 507.373657,253.064926 506.964233,253.9785 506.555328,254.891464 506.146027,255.805054 505.738556,256.714294 505.328644,257.629364 504.919647,258.542572 504.510803,259.454865 504.100342,260.371277 503.690948,261.284851 503.283417,262.194824 502.872772,263.111481 502.465302,264.020874 502.058105,264.930023 501.649902,265.841156 501.241791,266.751831 500.835052,267.659729 500.425629,268.573578 500.017029,269.485962 499.609802,270.394653 499.202667,271.303497 498.791412,272.221436 498.384399,273.130035 497.977539,274.038269 497.569336,274.949402 497.160889,275.861115 496.753387,276.770813 496.343292,277.686127 495.93454,278.598541 495.524231,279.514343 495.114502,280.429016 494.705505,281.341919 494.296082,282.255798 493.886139,283.170715 493.477081,284.083862 493.068542,284.995789 492.659271,285.909271 492.250916,286.820862 491.842651,287.732147 491.434296,288.643707 491.055145,289.569031 490.717194,290.507812 490.378326,291.44931 490.040497,292.387573 489.702423,293.32666 489.362366,294.271301 489.022369,295.215729 488.684357,296.154724 488.344727,297.098083 488.006958,298.03653 487.66629,298.982452 487.328796,299.920135 486.988464,300.865356 486.650604,301.80368 486.312836,302.742371 485.973816,303.68396 485.636719,304.62027 485.298279,305.560242 484.961487,306.496063 484.622681,307.437134 484.284668,308.375824 483.944092,309.32193 483.605713,310.261841 483.266052,311.205475 482.92572,312.150848 482.587524,313.090179 482.250153,314.027252 481.912384,314.965607 481.574982,315.902802 481.235046,316.847107 480.89563,317.789886 480.556213,318.732849 480.218109,319.672028 479.877686,320.617554 479.537354,321.562988 479.19812,322.50531 478.860107,323.444122 478.520538,324.38739 478.180756,325.331299 477.84201,326.272247 477.503326,327.213013 477.164246,328.154846 476.825684,329.095459 476.507202,330.043793 476.190155,330.993164 475.873505,331.941345 475.557281,332.888306 475.240143,333.838196 474.923523,334.786499 474.60733,335.733215 474.290314,336.682678 473.973297,337.631989 473.656677,338.580078 473.340607,339.526917 473.02298,340.478058 472.706024,341.427246 472.388611,342.377869 472.071503,343.327545 471.75531,344.274445 471.438232,345.22406 471.121399,346.172852 470.804718,347.121277 470.487915,348.070007 470.224274,349.03476 469.98175,350.003204 469.739166,350.97226 469.495728,351.944 469.253357,352.912048 469.01004,353.883545 468.767548,354.851685 468.524597,355.821869 468.281403,356.793152 468.03833,357.763641 467.794922,358.735596 467.551971,359.705597 467.308502,360.677765 467.065918,361.646515 466.822418,362.618805 466.579163,363.590149 466.335815,364.56189 466.09314,365.530823 465.850281,366.500488 465.607361,367.470581 465.446747,368.45752 465.288788,369.444916 465.130981,370.431671 464.97287,371.419678 464.81488,372.407227 464.800049,373.407196 464.800018,374.407135 464.800018,375" stroke="#e8b222" stroke-width="5" fill="none"></path>

	<image x="273.600006" y="176" width="180" height="180" href="/home/admin/Documents/GitHub/ProjetMMaki/4ImagesChoix/CPU/CPU1.png"></image>

</svg>