<?xml version="1.0" encoding="UTF-8"?>
<!DOCTYPE svg>
<svg viewBox="-100.5 -98.5 1154.100098 711.950134" xmlns="http://www.w3.org/2000/svg">

<defs>

	<style>
		@font-face {
			font-family: "custom-font-family";
			src: url("/home/admin/Documents/GitHub/ProjetMMaki/Assets/Fonts/arial_narrow_7.ttf");
		}
	</style>

</defs>

	<rect x="-100.5" y="-98.5" width="1154.100098" height="711.950134" fill="#faebd7"></rect>

	<path d="M 827.200012,42.5 L 828.200439,42.499992 829.200745,42.5 830.199951,42.5 831.199341,42.5 832.199097,42.5 833.187866,42.645454 834.125427,42.997025 835.061157,43.347946 835.996643,43.698761 836.934265,44.050369 837.868896,44.40081 838.80603,44.752274 839.740234,45.102608 840.675842,45.453438 841.61145,45.804337 842.545044,46.154419 843.480652,46.505257 844.416687,46.85627 845.351318,47.206741 846.28717,47.557709 847.224854,47.909332 848.158813,48.259552 849.095581,48.610832 850.033813,48.962669 850.971191,49.314209 851.907043,49.665131 852.847229,50.00547 853.841125,50.120499 854.835388,50.235573 855.82782,50.350449 856.822083,50.465515 857.815796,50.580536 858.809448,50.695541 859.803101,50.810547 860.654175,51.335388 861.447083,51.944061 862.239563,52.552277 863.031189,53.159912 863.825745,53.769791 864.617188,54.377258 865.412476,54.98764 866.207642,55.597961 866.999451,56.205673 867.7948,56.816193 868.58606,57.423553 869.378723,58.031906 870.170288,58.639473 870.962891,59.247856 871.754761,59.855576 872.548096,60.464493 873.342224,61.074112 874.136597,61.6838 874.930359,62.293045 875.772461,62.831299 876.636719,63.331421 877.500854,63.831497 878.366516,64.332397 879.230408,64.832375 880.09436,65.332336 880.959534,65.833069 881.82373,66.333122 882.69104,66.835083 883.556763,67.336075 884.423706,67.837753 885.290344,68.339264 886.154541,68.839417 887.021484,69.341095 887.885925,69.84137 888.750366,70.341614 889.615173,70.843872 890.436401,71.414154 891.258057,71.984688 892.079102,72.554924 892.899658,73.124817 893.722229,73.695908 894.5448,74.267235 895.366455,74.837852 896.188843,75.40892 897.010254,75.979301 897.831726,76.549789 898.653259,77.120293 899.446899,77.728615 900.181274,78.408585 900.915527,79.088455 901.64856,79.767105 902.383301,80.447517 903.118652,81.128418 903.851318,81.806854 904.585754,82.486656 905.319458,83.166138 906.055237,83.84745 906.790039,84.527832 907.525513,85.208755 908.258545,85.887444 908.991333,86.565994 909.724121,87.244461 910.458496,87.924568 911.191406,88.603134 911.926392,89.283623 912.660767,89.963638 913.393982,90.64254 914.068481,91.382278 914.717407,92.142815 915.367676,92.904831 916.015869,93.664398 916.664307,94.424301 917.313477,95.185043 917.963989,95.947235 918.614075,96.709007 919.262634,97.469299 919.912781,98.231155 920.56189,98.991753 921.211304,99.7528 921.862,100.515335 922.511841,101.276848 923.161743,102.038498 923.812012,102.800568 924.461609,103.561676 925.109985,104.321533 925.75824,105.081253 926.404419,105.84433 926.785156,106.769569 927.165649,107.69426 927.545959,108.618866 927.926819,109.544189 928.307495,110.46965 928.687927,111.394302 929.182312,112.263992 929.721863,113.106949 930.261902,113.950897 930.800476,114.79229 931.338623,115.633316 931.877563,116.47525 932.41626,117.317009 932.955444,118.159409 933.492981,118.999512 934.033691,119.844101 934.572205,120.685791 935.111084,121.527817 935.650513,122.370651 936.190186,123.213882 936.728821,124.055534 937.266541,124.895752 937.805908,125.738449 938.345581,126.58165 938.884155,127.423096 939.42334,128.265686 939.962463,129.108017 940.44751,129.982391 940.928223,130.858704 941.409363,131.735626 941.889587,132.611038 942.370422,133.487686 942.851501,134.364532 943.333191,135.242615 943.813965,136.119141 944.295593,136.99707 944.777222,137.875 945.257935,138.751587 945.739502,139.629272 946.220581,140.506058 946.613342,141.425552 946.952087,142.366562 947.290527,143.307205 947.628967,144.247223 947.968018,145.188904 948.306946,146.130371 948.64563,147.071289 948.966003,148.018829 949.270447,148.970047 949.575562,149.923477 949.880005,150.875244 950.184998,151.828079 950.490173,152.782089 950.795166,153.735336 951.100403,154.688904 951.404907,155.640396 951.709412,156.591751 952.014526,157.545319 952.319275,158.497803 952.624268,159.450806 952.841064,160.427597 952.936646,161.422607 953.032104,162.418152 953.127625,163.412918 953.223389,164.409454 953.318848,165.404099 953.414429,166.399506 953.51001,167.395599 953.600098,168.391388 953.599976,169.391541 953.600098,170.390839 953.599976,171.390533 953.600037,172.390533 953.599915,173.390671 953.600037,174.391571 953.600098,175.390518 953.600098,176.390167 953.600037,177.389984 953.599976,178.389252 953.599976,179.388916 953.600098,180.389511 953.600037,181.388809 953.600037,182.38855 953.599976,183.388214 953.599976,184.38855 953.599976,185.388763 953.599976,186.38858 953.600037,187.389191 953.599976,188.388718 953.599976,189.388107 953.600159,190.388641 953.600037,191.387787 953.600037,192.387848 953.599976,193.38736 953.600037,194.387146 953.600098,195.387024 953.600098,196.386993 953.600037,197.386612 953.599976,198.386719 953.600037,199.386475 953.369751,200.360001 952.830505,201.202393 952.291138,202.045212 951.752258,202.887161 951.213257,203.729233 950.674133,204.571762 950.247681,205.476425 949.94281,206.428711 949.638062,207.381271 949.220581,208.290619 948.787659,209.192429 948.355103,210.093735 947.922241,210.995422 947.489441,211.896881 946.962952,212.746933 946.270874,213.467911 945.579041,214.188599 944.886169,214.910294 944.194153,215.631073 943.501648,216.352585 942.809265,217.0737 942.116821,217.795105 941.461304,218.550171 940.922302,219.392273 940.38324,220.234497 939.999878,221.158234 939.605896,222.077133 938.913208,222.798767 938.220764,223.52005 937.528381,224.24144 936.835693,224.962692 936.799988,225" stroke="#e8b222" stroke-width="5" fill="none"></path>

	<text x="515.400024" y="366.800079" font-size="45" font-family="custom-font-family" fill="#000000" text-anchor="middle" dominant-baseline="middle" transform="rotate(0 515.400024 366.800079)">dzedezde</text>

	<image x="-0.5" y="1.5" width="225" height="225" href="/home/admin/Documents/GitHub/ProjetMMaki/4ImagesChoix/Adresse ip/adresse ip1.png"></image>

</svg>