<?xml version="1.0" encoding="UTF-8"?>
<!DOCTYPE svg>
<svg viewBox="248 190 505.600098 270.833313" xmlns="http://www.w3.org/2000/svg">

<defs>

	<style>
		@font-face {
			font-family: "custom-font-family";
			src: url("/home/admin/Documents/GitHub/ProjetMMaki/Assets/Fonts/arial_narrow_7.ttf");
		}
	</style>

</defs>

	<rect x="248" y="190" width="505.600098" height="270.833313" fill="#faebd7"></rect>
	
	<path d="M 592.799988,360 L 588.888184,359.166656 584.889465,359.166626 580.889893,359.166626 576.890259,359.166687 572.890747,359.166656 568.891296,359.166656 564.891357,359.166687 560.890991,359.166687 556.889709,359.166687 552.889832,359.166656 548.888916,359.166656 544.89032,359.166656 540.890625,359.166626 536.889832,359.166656 532.88916,359.166656 528.888611,359.166687 524.888367,359.166656 520.889343,359.166626 516.890137,359.166687 512.890686,359.166687 508.889771,359.166656 504.89032,359.166656 500.889984,359.166687 496.890015,359.166687 492.890015,359.166687 488.889221,359.166626 484.889465,359.166626 480.889465,359.166656 476.889343,359.166656 472.889954,359.166687 468.890625,359.166687 464.8909,359.166656 460.891266,359.166656 456.891754,359.166626 452.891205,359.166687 448.891296,359.166687 444.890259,359.166656 440.890991,359.166656 436.891022,359.166687 432.891174,359.166656 428.891266,359.166656 424.890991,359.166656 420.891144,359.166687 416.890686,359.166687 412.890594,359.166656 408.890503,359.166656 404.890625,359.166656 400.891235,359.166687 396.891052,359.166626 392.891022,359.166656 388.891052,359.166656 384.891144,359.166626 380.891205,359.166687 376.891052,359.166626 372.891296,359.166656 368.891205,359.166626 364.979248,358.333374 361.042175,357.626099 357.37561,356.026428 354.05069,353.802765 351.264008,350.933319 350.399994,347.027679 348.286591,343.631836 348,339.642242 348,335.641815 348.000031,331.641724 348.000031,327.641754 348.800049,323.722321 348.800018,319.722351 349.600037,315.803162 350.399994,311.883881 350.400024,307.884308 351.964966,304.203156 355.892517,303.445251 359.646759,302.062439 363.453308,300.833313 367.365479,300.000031 371.365417,300.000031 375.365082,300 379.36496,300.000031 383.365845,299.999969 387.365936,300 391.365967,300 395.170502,301.234619 399.147003,301.666626 403.089844,302.34198 407.011749,303.127441 411.006348,303.333313 414.918579,304.166687 418.864258,304.825104 422.734802,305.833313 426.734497,305.833313 430.734528,305.833344 434.734528,305.833344 438.734528,305.833344 442.734497,305.833313 446.735046,305.833313 450.734009,305.833313 454.734039,305.833313 458.733337,305.833313 462.733093,305.833313 466.732208,305.833344 470.731781,305.833313 474.731812,305.833313 478.731232,305.833313 482.731445,305.833313 486.731445,305.833313 490.731445,305.833313 494.731018,305.833313 498.730896,305.833313 502.730835,305.833344 506.730865,305.833344 510.731476,305.833313 514.731689,305.833282 518.73175,305.833282 522.73175,305.833344 526.731812,305.833282 530.73175,305.833282 534.731689,305.833282 538.731812,305.833344 542.731934,305.833344 546.731384,305.833282 550.730896,305.833313 554.730896,305.833252 558.731384,305.833282 562.731323,305.833313 566.731323,305.833313 570.731323,305.833313 574.731262,305.833282 578.731506,305.833344 582.731567,305.833344 586.7323,305.833313 590.732239,305.833282 594.732117,305.833282 598.731323,305.74704 602.660767,305 606.661499,305 610.573792,304.166687 614.573853,304.166656 618.573608,304.166687 622.573669,304.166656 626.57373,304.166687 630.573853,304.166687 634.46991,305.072845 637.240112,307.958466 639.653442,311.148224 642.742004,313.689606 645.512207,316.575134 647.837036,319.830231 649.851501,323.285858 652.462891,326.315552 653.600037,330.150543 653.600037,334.150543 653.600037,338.150635 653.600098,342.150757 653.600037,346.150635 651.591431,349.610046 649.760315,353.166382 647.435364,356.421448 643.442993,356.666687 639.517578,357.433838 635.676514,358.548645 631.724487,359.166687 627.725342,359.262024 623.794189,360 619.811157,359.627319 615.837463,359.166656 611.838135,359.166687 607.838562,359.166656 603.838196,359.166687 599.838196,359.166687 595.838196,359.166626 591.837952,359.166626 587.838013,359.166687 583.925842,360 579.950562,360.442413 578.400024,360.833313 " stroke="#e8b222" stroke-width="5" fill="none"></path>
	
	<text x="358.400024" y="360" font-size="64" font-family="custom-font-family" fill="#000000">dezdezdzd</text>

</svg>
