<svg id="Layer_1" data-name="Layer 1" xmlns="http://www.w3.org/2000/svg" viewBox="0 0 511.48295 511.34115"><path d="M280.37088,410.31206l11.3,11.3,33.9-33.9,62.1-62.1,33.9-33.9-11.3-11.3-22.6-22.6-199.2-199.2a88.68405,88.68405,0,0,0-37.4-22.2l-120.4-35.4a23.7095,23.7095,0,0,0-23.7,6.1,24.21187,24.21187,0,0,0-6.1,23.7l35.4,120.3a88.684,88.684,0,0,0,22.2,37.4l199.2,199.2Zm-168.4-250.3-22.7-9.1a42.17277,42.17277,0,0,1-6.9-13.3l-23-78.2,78.1,23a38.364,38.364,0,0,1,13.3,6.9l9.1,22.7h-32a16.047,16.047,0,0,0-16,16v32Zm380.7,202.7-14.5-14.4-22.6-22.6-11.3-11.4-33.9,33.9-62.1,62.1-33.9,33.9,11.3,11.3,22.6,22.6,14.5,14.5a63.97667,63.97667,0,0,0,90.5,0l39.4-39.3a63.97667,63.97667,0,0,0,0-90.5Zm-168-47.4-144-144a15.98062,15.98062,0,0,1,22.6-22.6l144,144a15.98062,15.98062,0,0,1-22.6,22.6Z" transform="translate(0.06207 -0.0209)"/></svg>